<?xml version="1.0" encoding="UTF-8" standalone="no"?>
<!-- Created with Inkscape (http://www.inkscape.org/) -->

<svg
   xmlns:dc="http://purl.org/dc/elements/1.1/"
   xmlns:cc="http://creativecommons.org/ns#"
   xmlns:rdf="http://www.w3.org/1999/02/22-rdf-syntax-ns#"
   xmlns:svg="http://www.w3.org/2000/svg"
   xmlns="http://www.w3.org/2000/svg"
   xmlns:xlink="http://www.w3.org/1999/xlink"
   xmlns:sodipodi="http://sodipodi.sourceforge.net/DTD/sodipodi-0.dtd"
   xmlns:inkscape="http://www.inkscape.org/namespaces/inkscape"
   id="svg2"
   version="1.1"
   inkscape:version="0.91 r13725"
   xml:space="preserve"
   width="200"
   height="200"
   viewBox="0 0 200 200"
   sodipodi:docname="logo_upgrade.svg"><metadata
     id="metadata8"><rdf:RDF><cc:Work
         rdf:about=""><dc:format>image/svg+xml</dc:format><dc:type
           rdf:resource="http://purl.org/dc/dcmitype/StillImage" /><dc:title></dc:title></cc:Work></rdf:RDF></metadata><defs
     id="defs6"><linearGradient
       inkscape:collect="always"
       xlink:href="#linearGradient4902"
       id="linearGradient4908"
       x1="1708.7197"
       y1="-414.92789"
       x2="1038.4657"
       y2="-494.06006"
       gradientUnits="userSpaceOnUse" /><linearGradient
       inkscape:collect="always"
       id="linearGradient4902"><stop
         style="stop-color:#fdd600;stop-opacity:1;"
         offset="0"
         id="stop4904" /><stop
         style="stop-color:#fdd600;stop-opacity:0;"
         offset="1"
         id="stop4906" /></linearGradient><linearGradient
       inkscape:collect="always"
       xlink:href="#linearGradient4894"
       id="linearGradient4900"
       x1="1760.0214"
       y1="-240.27133"
       x2="1322.1569"
       y2="-271.92419"
       gradientUnits="userSpaceOnUse" /><linearGradient
       inkscape:collect="always"
       id="linearGradient4894"><stop
         style="stop-color:#000000;stop-opacity:1;"
         offset="0"
         id="stop4896" /><stop
         style="stop-color:#000000;stop-opacity:0;"
         offset="1"
         id="stop4898" /></linearGradient><linearGradient
       inkscape:collect="always"
       xlink:href="#linearGradient4902"
       id="linearGradient3793"
       gradientUnits="userSpaceOnUse"
       x1="1708.7197"
       y1="-414.92789"
       x2="1038.4657"
       y2="-494.06006" /><linearGradient
       inkscape:collect="always"
       xlink:href="#linearGradient4902"
       id="linearGradient3795"
       gradientUnits="userSpaceOnUse"
       x1="1708.7197"
       y1="-414.92789"
       x2="1038.4657"
       y2="-494.06006" /><linearGradient
       inkscape:collect="always"
       xlink:href="#linearGradient4902"
       id="linearGradient3797"
       gradientUnits="userSpaceOnUse"
       x1="1708.7197"
       y1="-414.92789"
       x2="1038.4657"
       y2="-494.06006" /><linearGradient
       inkscape:collect="always"
       xlink:href="#linearGradient4902"
       id="linearGradient3799"
       gradientUnits="userSpaceOnUse"
       x1="1708.7197"
       y1="-414.92789"
       x2="1038.4657"
       y2="-494.06006" /><linearGradient
       inkscape:collect="always"
       xlink:href="#linearGradient4902"
       id="linearGradient3801"
       gradientUnits="userSpaceOnUse"
       x1="1708.7197"
       y1="-414.92789"
       x2="1038.4657"
       y2="-494.06006" /><linearGradient
       inkscape:collect="always"
       xlink:href="#linearGradient4902"
       id="linearGradient3803"
       gradientUnits="userSpaceOnUse"
       x1="1708.7197"
       y1="-414.92789"
       x2="1038.4657"
       y2="-494.06006" /><linearGradient
       inkscape:collect="always"
       xlink:href="#linearGradient4902"
       id="linearGradient3805"
       gradientUnits="userSpaceOnUse"
       x1="1708.7197"
       y1="-414.92789"
       x2="1038.4657"
       y2="-494.06006" /><linearGradient
       inkscape:collect="always"
       xlink:href="#linearGradient4902"
       id="linearGradient3807"
       gradientUnits="userSpaceOnUse"
       x1="1708.7197"
       y1="-414.92789"
       x2="1038.4657"
       y2="-494.06006" /><linearGradient
       inkscape:collect="always"
       xlink:href="#linearGradient4902"
       id="linearGradient3809"
       gradientUnits="userSpaceOnUse"
       x1="1708.7197"
       y1="-414.92789"
       x2="1038.4657"
       y2="-494.06006" /><linearGradient
       inkscape:collect="always"
       xlink:href="#linearGradient4902"
       id="linearGradient3811"
       gradientUnits="userSpaceOnUse"
       x1="1708.7197"
       y1="-414.92789"
       x2="1038.4657"
       y2="-494.06006" /><linearGradient
       inkscape:collect="always"
       xlink:href="#linearGradient4902"
       id="linearGradient3813"
       gradientUnits="userSpaceOnUse"
       x1="1708.7197"
       y1="-414.92789"
       x2="1038.4657"
       y2="-494.06006" /><linearGradient
       inkscape:collect="always"
       xlink:href="#linearGradient4902"
       id="linearGradient3815"
       gradientUnits="userSpaceOnUse"
       x1="1708.7197"
       y1="-414.92789"
       x2="1038.4657"
       y2="-494.06006" /><linearGradient
       inkscape:collect="always"
       xlink:href="#linearGradient4902"
       id="linearGradient3817"
       gradientUnits="userSpaceOnUse"
       x1="1708.7197"
       y1="-414.92789"
       x2="1038.4657"
       y2="-494.06006" /><linearGradient
       inkscape:collect="always"
       xlink:href="#linearGradient4902"
       id="linearGradient3819"
       gradientUnits="userSpaceOnUse"
       x1="1708.7197"
       y1="-414.92789"
       x2="1038.4657"
       y2="-494.06006" /><linearGradient
       inkscape:collect="always"
       xlink:href="#linearGradient4902"
       id="linearGradient3821"
       gradientUnits="userSpaceOnUse"
       x1="1708.7197"
       y1="-414.92789"
       x2="1038.4657"
       y2="-494.06006" /><linearGradient
       inkscape:collect="always"
       xlink:href="#linearGradient4902"
       id="linearGradient3823"
       gradientUnits="userSpaceOnUse"
       x1="1708.7197"
       y1="-414.92789"
       x2="1038.4657"
       y2="-494.06006" /><linearGradient
       inkscape:collect="always"
       xlink:href="#linearGradient4902"
       id="linearGradient3825"
       gradientUnits="userSpaceOnUse"
       x1="1708.7197"
       y1="-414.92789"
       x2="1038.4657"
       y2="-494.06006" /><linearGradient
       inkscape:collect="always"
       xlink:href="#linearGradient4902"
       id="linearGradient3827"
       gradientUnits="userSpaceOnUse"
       x1="1708.7197"
       y1="-414.92789"
       x2="1038.4657"
       y2="-494.06006" /><linearGradient
       inkscape:collect="always"
       xlink:href="#linearGradient4902"
       id="linearGradient3829"
       gradientUnits="userSpaceOnUse"
       x1="1708.7197"
       y1="-414.92789"
       x2="1038.4657"
       y2="-494.06006" /><linearGradient
       inkscape:collect="always"
       xlink:href="#linearGradient4902"
       id="linearGradient3831"
       gradientUnits="userSpaceOnUse"
       x1="1708.7197"
       y1="-414.92789"
       x2="1038.4657"
       y2="-494.06006" /><linearGradient
       inkscape:collect="always"
       xlink:href="#linearGradient4902"
       id="linearGradient3833"
       gradientUnits="userSpaceOnUse"
       x1="1708.7197"
       y1="-414.92789"
       x2="1038.4657"
       y2="-494.06006" /><linearGradient
       inkscape:collect="always"
       xlink:href="#linearGradient4902"
       id="linearGradient3835"
       gradientUnits="userSpaceOnUse"
       x1="1708.7197"
       y1="-414.92789"
       x2="1038.4657"
       y2="-494.06006" /><linearGradient
       inkscape:collect="always"
       xlink:href="#linearGradient4902"
       id="linearGradient3837"
       gradientUnits="userSpaceOnUse"
       x1="1708.7197"
       y1="-414.92789"
       x2="1038.4657"
       y2="-494.06006" /><linearGradient
       inkscape:collect="always"
       xlink:href="#linearGradient4902"
       id="linearGradient3839"
       gradientUnits="userSpaceOnUse"
       x1="1708.7197"
       y1="-414.92789"
       x2="1038.4657"
       y2="-494.06006" /></defs><sodipodi:namedview
     pagecolor="#ffffff"
     bordercolor="#666666"
     borderopacity="1"
     objecttolerance="10"
     gridtolerance="10"
     guidetolerance="10"
     inkscape:pageopacity="0"
     inkscape:pageshadow="2"
     inkscape:window-width="1366"
     inkscape:window-height="713"
     id="namedview4"
     showgrid="false"
     inkscape:zoom="0.9820546"
     inkscape:cx="67.426541"
     inkscape:cy="50.833965"
     inkscape:window-x="0"
     inkscape:window-y="26"
     inkscape:window-maximized="1"
     inkscape:current-layer="g12" /><g
     id="g10"
     inkscape:groupmode="layer"
     inkscape:label="ink_ext_XXXXXX"
     transform="matrix(1.25,0,0,-1.25,0,200)"><g
       id="g12"
       transform="scale(0.1,0.1)"><rect
         style="opacity:1;fill:#ffffff;fill-opacity:1"
         id="rect4648"
         width="1598.689"
         height="1600.7256"
         x="-4.2363163e-06"
         y="0.00012207031" /><path
         style="opacity:1;fill:#b2becc;fill-opacity:1;stroke:none;stroke-width:4;stroke-miterlimit:4;stroke-dasharray:none;stroke-opacity:1"
         d=""
         id="path3508"
         inkscape:connector-curvature="0" /><path
         style="opacity:1;fill:#e25f25;fill-opacity:1;stroke:none;stroke-width:4;stroke-miterlimit:4;stroke-dasharray:none;stroke-opacity:1"
         d=""
         id="path3518"
         inkscape:connector-curvature="0" /><g
         id="g4910"
         transform="matrix(1.3452623,0,0,-1.3452623,1659.8243,534.86269)"><g
           style="fill:none;fill-opacity:0.5098038;stroke:#fdd600;stroke-opacity:0.5098038"
           transform="translate(-1883.3451,243.72698)"
           id="g4733"><g
             style="fill:none;fill-opacity:0.5098038;stroke:#fdd600;stroke-opacity:0.5098038"
             id="g4833"><g
               style="stroke:url(#linearGradient4908)"
               id="g4868"><path
                 inkscape:connector-curvature="0"
                 id="path4761"
                 d="m 1712.6105,-513.94244 -542.9834,-4.114"
                 style="fill:none;fill-opacity:0.5098038;fill-rule:evenodd;stroke:url(#linearGradient3793);stroke-width:5.84896326px;stroke-linecap:butt;stroke-linejoin:miter;stroke-opacity:0.5098038" /><path
                 style="fill:none;fill-opacity:0.5098038;fill-rule:evenodd;stroke:url(#linearGradient3795);stroke-width:5.84896326px;stroke-linecap:butt;stroke-linejoin:miter;stroke-opacity:0.5098038"
                 d="m 1712.6105,-523.34586 -542.9834,-4.11399"
                 id="path4763"
                 inkscape:connector-curvature="0" /><path
                 inkscape:connector-curvature="0"
                 id="path4765"
                 d="m 1712.6105,-504.53899 -542.9834,-4.11399"
                 style="fill:url(#linearGradient4900);fill-opacity:1;fill-rule:evenodd;stroke:url(#linearGradient3797);stroke-width:5.84896326px;stroke-linecap:butt;stroke-linejoin:miter;stroke-opacity:0.5098038" /><path
                 style="fill:none;fill-opacity:0.5098038;fill-rule:evenodd;stroke:url(#linearGradient3799);stroke-width:5.84896326px;stroke-linecap:butt;stroke-linejoin:miter;stroke-opacity:0.5098038"
                 d="m 1712.6105,-495.13557 -542.9834,-4.114"
                 id="path4767"
                 inkscape:connector-curvature="0" /><path
                 inkscape:connector-curvature="0"
                 id="path4769"
                 d="m 1712.6105,-485.73216 -542.9834,-4.11399"
                 style="fill:none;fill-opacity:0.5098038;fill-rule:evenodd;stroke:url(#linearGradient3801);stroke-width:5.84896326px;stroke-linecap:butt;stroke-linejoin:miter;stroke-opacity:0.5098038" /><path
                 style="fill:none;fill-opacity:0.5098038;fill-rule:evenodd;stroke:url(#linearGradient3803);stroke-width:5.84896326px;stroke-linecap:butt;stroke-linejoin:miter;stroke-opacity:0.5098038"
                 d="m 1712.6105,-476.32874 -542.9834,-4.11399"
                 id="path4771"
                 inkscape:connector-curvature="0" /><path
                 style="fill:none;fill-opacity:0.5098038;fill-rule:evenodd;stroke:url(#linearGradient3805);stroke-width:5.84896326px;stroke-linecap:butt;stroke-linejoin:miter;stroke-opacity:0.5098038"
                 d="m 1712.6105,-457.52193 -542.9834,-4.11399"
                 id="path4773"
                 inkscape:connector-curvature="0" /><path
                 inkscape:connector-curvature="0"
                 id="path4775"
                 d="m 1712.6105,-466.92535 -542.9834,-4.11398"
                 style="fill:none;fill-opacity:0.5098038;fill-rule:evenodd;stroke:url(#linearGradient3807);stroke-width:5.84896326px;stroke-linecap:butt;stroke-linejoin:miter;stroke-opacity:0.5098038" /><path
                 style="fill:none;fill-opacity:0.5098038;fill-rule:evenodd;stroke:url(#linearGradient3809);stroke-width:5.84896326px;stroke-linecap:butt;stroke-linejoin:miter;stroke-opacity:0.5098038"
                 d="m 1712.6105,-448.11848 -542.9834,-4.11398"
                 id="path4777"
                 inkscape:connector-curvature="0" /><path
                 inkscape:connector-curvature="0"
                 id="path4779"
                 d="m 1712.6105,-438.71506 -542.9834,-4.11399"
                 style="fill:none;fill-opacity:0.5098038;fill-rule:evenodd;stroke:url(#linearGradient3811);stroke-width:5.84896326px;stroke-linecap:butt;stroke-linejoin:miter;stroke-opacity:0.5098038" /><path
                 style="fill:none;fill-opacity:0.5098038;fill-rule:evenodd;stroke:url(#linearGradient3813);stroke-width:5.84896326px;stroke-linecap:butt;stroke-linejoin:miter;stroke-opacity:0.5098038"
                 d="m 1712.6105,-429.31164 -542.9834,-4.11399"
                 id="path4781"
                 inkscape:connector-curvature="0" /><path
                 inkscape:connector-curvature="0"
                 id="path4783"
                 d="m 1712.6105,-419.90822 -542.9834,-4.114"
                 style="fill:none;fill-opacity:0.5098038;fill-rule:evenodd;stroke:url(#linearGradient3815);stroke-width:5.84896326px;stroke-linecap:butt;stroke-linejoin:miter;stroke-opacity:0.5098038" /><path
                 inkscape:connector-curvature="0"
                 id="path4785"
                 d="m 1712.6526,-401.0709 -741.42551,-4.11087"
                 style="fill:none;fill-opacity:0.5098038;fill-rule:evenodd;stroke:url(#linearGradient3817);stroke-width:6.83210802px;stroke-linecap:butt;stroke-linejoin:miter;stroke-opacity:0.5098038" /><path
                 style="fill:none;fill-opacity:0.5098038;fill-rule:evenodd;stroke:url(#linearGradient3819);stroke-width:6.83210802px;stroke-linecap:butt;stroke-linejoin:miter;stroke-opacity:0.5098038"
                 d="m 1712.6526,-410.46719 -741.42551,-4.11088"
                 id="path4787"
                 inkscape:connector-curvature="0" /><path
                 inkscape:connector-curvature="0"
                 id="path4789"
                 d="m 1712.6526,-391.67457 -741.42551,-4.11088"
                 style="fill:none;fill-opacity:0.5098038;fill-rule:evenodd;stroke:url(#linearGradient3821);stroke-width:6.83210802px;stroke-linecap:butt;stroke-linejoin:miter;stroke-opacity:0.5098038" /><path
                 style="fill:none;fill-opacity:0.5098038;fill-rule:evenodd;stroke:url(#linearGradient3823);stroke-width:6.83210802px;stroke-linecap:butt;stroke-linejoin:miter;stroke-opacity:0.5098038"
                 d="m 1712.6526,-382.27829 -741.42551,-4.11087"
                 id="path4791"
                 inkscape:connector-curvature="0" /><path
                 inkscape:connector-curvature="0"
                 id="path4793"
                 d="m 1712.6526,-372.882 -741.42551,-4.11088"
                 style="fill:none;fill-opacity:0.5098038;fill-rule:evenodd;stroke:url(#linearGradient3825);stroke-width:6.83210802px;stroke-linecap:butt;stroke-linejoin:miter;stroke-opacity:0.5098038" /><path
                 style="fill:none;fill-opacity:0.5098038;fill-rule:evenodd;stroke:url(#linearGradient3827);stroke-width:6.83210802px;stroke-linecap:butt;stroke-linejoin:miter;stroke-opacity:0.5098038"
                 d="m 1712.6526,-363.48572 -741.42551,-4.11086"
                 id="path4795"
                 inkscape:connector-curvature="0" /><path
                 style="fill:none;fill-opacity:0.5098038;fill-rule:evenodd;stroke:url(#linearGradient3829);stroke-width:6.83210802px;stroke-linecap:butt;stroke-linejoin:miter;stroke-opacity:0.5098038"
                 d="m 1712.6526,-344.69316 -741.42551,-4.11086"
                 id="path4797"
                 inkscape:connector-curvature="0" /><path
                 inkscape:connector-curvature="0"
                 id="path4799"
                 d="m 1712.6526,-354.08944 -741.42551,-4.11088"
                 style="fill:none;fill-opacity:0.5098038;fill-rule:evenodd;stroke:url(#linearGradient3831);stroke-width:6.83210802px;stroke-linecap:butt;stroke-linejoin:miter;stroke-opacity:0.5098038" /><path
                 style="fill:none;fill-opacity:0.5098038;fill-rule:evenodd;stroke:url(#linearGradient3833);stroke-width:6.83210802px;stroke-linecap:butt;stroke-linejoin:miter;stroke-opacity:0.5098038"
                 d="m 1712.6526,-335.29682 -741.42551,-4.11087"
                 id="path4801"
                 inkscape:connector-curvature="0" /><path
                 inkscape:connector-curvature="0"
                 id="path4803"
                 d="M 1712.6526,-325.90054 971.22709,-330.0114"
                 style="fill:none;fill-opacity:0.5098038;fill-rule:evenodd;stroke:url(#linearGradient3835);stroke-width:6.83210802px;stroke-linecap:butt;stroke-linejoin:miter;stroke-opacity:0.5098038" /><path
                 style="fill:none;fill-opacity:0.5098038;fill-rule:evenodd;stroke:url(#linearGradient3837);stroke-width:6.83210802px;stroke-linecap:butt;stroke-linejoin:miter;stroke-opacity:0.5098038"
                 d="m 1712.6526,-316.50424 -741.42551,-4.11088"
                 id="path4805"
                 inkscape:connector-curvature="0" /><path
                 inkscape:connector-curvature="0"
                 id="path4807"
                 d="m 1712.6526,-307.10795 -741.42551,-4.11087"
                 style="fill:none;fill-opacity:0.5098038;fill-rule:evenodd;stroke:url(#linearGradient3839);stroke-width:6.83210802px;stroke-linecap:butt;stroke-linejoin:miter;stroke-opacity:0.5098038" /></g></g></g><path
           inkscape:connector-curvature="0"
           id="path4731"
           d="m -937.74852,-68.290819 c 0.314,-27.43593 21.0474,-148.321961 25.9876,-151.520761 7.7795,-5.0373 96.3152,-2.5091 96.3832,2.7523 0.03,2.3212 -11.7674,5.17 -26.2164,6.3306 l -26.2709,2.1102 -7.1979,52.7548 c -3.9588,29.01508 -8.3345,59.876611 -9.7237,68.581151 -2.3369,14.64286 -1.7581,15.82643 7.7397,15.82643 11.3043,0 12.6112,-3.59144 17.6617,-48.534391 4.4882,-39.93919 7.1471,-44.31399 26.933,-44.31399 15.7243,0 16.9836,0.8621 16.9541,11.606 -0.029,10.3721 -4.1058,40.90914 -10.7067,80.187281 l -2.305,13.71624 -54.6737,0 c -53.9173,0 -54.6722,-0.13138 -54.565,-9.49586 z m 129.1411,6.13023 c -3.4864,-5.64115 17.9467,-149.190791 23.225,-155.550691 3.8168,-4.5989 15.5305,-5.6747 51.7851,-4.7558 43.6433,1.1061 46.8527,1.7656 46.8527,9.6282 0,6.7073 -3.2502,8.7098 -15.8264,9.7506 -9.1616,0.7583 -15.8264,-0.5747 -15.8264,-3.1653 0,-4.9993 -21.0393,-6.2986 -21.2106,-1.3098 -0.447,13.0164 -20.7569,140.751321 -22.9416,144.286171 -3.2019,5.18076 -42.9504,6.14442 -46.0578,1.11662 z m 115.9878,-12.34492 c 0.2505,-8.76827 2.6245,-28.286921 5.2755,-43.374781 l 4.8199,-27.43249 35.8732,-2.1102 35.8733,-2.1102 2.8524,-18.9917 c 1.5689,-10.4454 2.9933,-24.2144 3.1653,-30.5977 l 0.3128,-11.6061 -32.0045,0 c -23.7245,0 -31.5513,-1.3648 -30.2526,-5.2755 2.5503,-7.679 105.7465,-9.739 111.7928,-2.2316 3.0331,3.7661 0.9879,28.3527 -6.7681,81.36377 l -11.1147,75.966861 -60.1404,1.17097 -60.1405,1.17097 0.4556,-15.9423 z m 73.1349,-16.9974 c 1.5414,-11.025751 3.8675,-26.219121 5.1693,-33.763051 2.1529,-12.47629 1.4041,-13.71624 -8.2828,-13.71624 -9.1975,0 -10.988,2.30193 -13.1308,16.88152 -1.3647,9.28484 -3.5977,24.478211 -4.9624,33.763051 -2.3244,15.81521 -1.8215,16.88153 7.9616,16.88153 9.2511,0 10.7625,-2.2876 13.2451,-20.04681 z m 64.3209,29.54266 c -1.0227,-1.7409 3.1384,-37.35037 9.2468,-79.132141 l 11.1061,-75.96689 35.8495,-2.1102 35.8495,-2.1101 3.6294,-23.2121 c 1.9962,-12.7667 5.563,-25.5861 7.9262,-28.4876 2.3718,-2.9121 13.519,-5.2755 24.8819,-5.2755 21.3242,0 22.1826,0.871 20.7966,21.1019 -0.837,12.2156 -24.8125,174.710001 -27.8661,188.862061 -2.0054,9.29472 -3.2934,9.49586 -60.8047,9.49586 -32.3157,0 -59.5926,-1.42438 -60.6152,-3.16529 z m 79.0803,-65.415901 c 4.1836,-30.75603 8.598,-62.09233 9.8099,-69.63633 1.986,-12.3625 1.1762,-13.7162 -8.2048,-13.7162 -10.2094,0 -10.5828,1.2291 -19.5486,64.3608 -11.1853,78.759311 -11.2162,74.911781 0.603,74.911781 9.2927,0 10.079,-2.5356 17.3405,-55.920051 z m 61.6101,63.305711 c 0.2583,-24.06686 22.0307,-153.117341 26.2887,-155.820641 8.0702,-5.1234 111.9362,-4.2963 115.1582,0.917 3.5837,5.7986 -10.723,110.09265 -16.0387,116.92021 -2.6676,3.426331 -15.7607,5.275481 -37.3536,5.275481 -20.0124,0 -33.2463,1.73165 -33.2463,4.35028 0,2.8132 18.1271,3.93158 51.3037,3.16529 46.1047,-1.06492 51.4186,-1.97263 52.4381,-8.95738 0.6239,-4.274821 2.1407,-8.778721 3.3707,-10.008691 1.9349,-1.93498 56.2926,27.663801 80.5784,43.876511 6.978,4.65837 -11.9682,5.55742 -117.1155,5.55742 -97.5689,0 -125.4278,-1.17215 -125.3837,-5.27548 z m 84.0815,-90.707741 c 3.0477,-24.9363 6.4574,-47.7263 7.5772,-50.6446 1.3143,-3.4248 -1.8646,-5.3059 -8.9664,-5.3059 -6.0514,0 -11.0365,1.4244 -11.0782,3.1653 -0.042,1.7409 -2.8563,21.2074 -6.2548,43.2589 -8.2726,53.67711 -8.1985,54.86495 3.4252,54.86495 9.2449,0 10.0461,-2.37444 15.297,-45.33865 z"
           style="fill:#000000" /><g
           transform="translate(654.15904,1274.555)"
           id="g4381"><path
             sodipodi:nodetypes="ccscscsscccscssssccssssscsscc"
             inkscape:connector-curvature="0"
             id="path4543"
             d="m -1651.3112,-1402.329 c -2.7813,-7.2481 25.8223,-221.483 30.6045,-229.2207 3.9008,-6.3118 109.7844,-5.1794 114.9552,1.2294 5.8118,7.2032 -9.0822,108.659 -16.6565,113.462 -3.057,1.9384 -19.241,3.5534 -35.9646,3.589 l -30.4065,0.065 -2.3545,13.7162 c -1.2949,7.5439 -5.0846,32.5373 -8.4215,55.5409 -3.4307,23.6507 -8.4508,43.3367 -11.553,45.3044 -10.4145,6.6061 -37.1959,4.1508 -40.2031,-3.6858 z m 82.2179,-124.5919 c 5.931,-7.4139 17.116,-90.4896 13.0582,-96.9889 -2.5034,-4.0098 -5.2295,-4.1911 -10.8494,-0.7217 -5.6371,3.4801 -8.9574,15.2339 -13.3364,47.2093 -5.6586,41.3193 -4.8625,55.7767 3.0712,55.7767 2.1099,0 5.7352,-2.3739 8.0564,-5.2754 z m -202.5998,51.0147 c -9.3215,-3.4045 -11.608,-6.8695 -11.6162,-17.6034 -0.017,-22.5786 17.5053,-131.2107 22.0679,-136.8107 4.9367,-6.0593 39.5584,-7.2033 43.1295,-1.4252 1.3088,2.1177 -1.4279,29.7599 -6.0815,61.4271 -9.6643,65.7638 -10.3433,80.7746 -3.8358,84.7965 10.0376,6.2035 15.9233,-11.381 24.8015,-74.0978 5.0925,-35.9736 11.2327,-67.7848 13.645,-70.6914 5.8157,-7.0076 40.9658,-6.9392 43.6612,0.085 3.5553,9.265 -18.9756,152.2473 -24.5486,155.7872 -7.4586,4.7375 -87.4074,3.5787 -101.223,-1.4672 z"
             style="fill:#ffd700;fill-opacity:1" /></g></g></g></g></svg>