<?xml version="1.0" encoding="UTF-8" standalone="no"?>
<!-- Created with Inkscape (http://www.inkscape.org/) -->

<svg
   xmlns:dc="http://purl.org/dc/elements/1.1/"
   xmlns:cc="http://creativecommons.org/ns#"
   xmlns:rdf="http://www.w3.org/1999/02/22-rdf-syntax-ns#"
   xmlns:svg="http://www.w3.org/2000/svg"
   xmlns="http://www.w3.org/2000/svg"
   xmlns:sodipodi="http://sodipodi.sourceforge.net/DTD/sodipodi-0.dtd"
   xmlns:inkscape="http://www.inkscape.org/namespaces/inkscape"
   id="svg2"
   version="1.1"
   inkscape:version="0.91 r13725"
   xml:space="preserve"
   width="200"
   height="200"
   viewBox="0 0 200 200"
   sodipodi:docname="logo_opens.svg"><metadata
     id="metadata8"><rdf:RDF><cc:Work
         rdf:about=""><dc:format>image/svg+xml</dc:format><dc:type
           rdf:resource="http://purl.org/dc/dcmitype/StillImage" /><dc:title /></cc:Work></rdf:RDF></metadata><defs
     id="defs6" /><sodipodi:namedview
     pagecolor="#ffffff"
     bordercolor="#666666"
     borderopacity="1"
     objecttolerance="10"
     gridtolerance="10"
     guidetolerance="10"
     inkscape:pageopacity="0"
     inkscape:pageshadow="2"
     inkscape:window-width="1366"
     inkscape:window-height="713"
     id="namedview4"
     showgrid="false"
     inkscape:zoom="1.3888349"
     inkscape:cx="67.426541"
     inkscape:cy="74.422466"
     inkscape:window-x="0"
     inkscape:window-y="26"
     inkscape:window-maximized="1"
     inkscape:current-layer="g12" /><g
     id="g10"
     inkscape:groupmode="layer"
     inkscape:label="ink_ext_XXXXXX"
     transform="matrix(1.25,0,0,-1.25,0,200)"><g
       id="g12"
       transform="scale(0.1,0.1)"><rect
         style="opacity:1;fill:#ffffff;fill-opacity:1"
         id="rect4648"
         width="1598.689"
         height="1600.7256"
         x="-4.2363163e-06"
         y="0.00012207031" /><g
         transform="matrix(2.5145406,-0.04323277,-0.04323277,-2.5145406,-1214.1873,2364.9807)"
         id="g4276"><path
           style="fill:#f6a964"
           d="m 910.4944,774.19475 c -0.3867,-0.10095 -0.60054,-0.34937 -0.47519,-0.5522 0.12542,-0.20283 0.0426,-0.36878 -0.18407,-0.36878 -0.2266,0 -80.88451,-31.25408 -179.23982,-69.45351 -98.35531,-38.19942 -179.15435,-69.47808 -179.55342,-69.50815 -0.39908,-0.03 -0.71546,-0.15111 -0.70309,-0.26898 0.012,-0.11783 31.8116,-27.14577 70.66494,-60.06197 38.85335,-32.91619 77.83167,-65.94189 86.61849,-73.39045 l 15.97606,-13.54281 164.6193,-9.50423 c 90.54062,-5.22733 166.7737,-9.66086 169.407,-9.85231 4.6837,-0.3405 5.6283,-0.28326 4.7083,0.28532 -0.2504,0.15479 -15.3914,30.62243 -33.6466,67.70587 -18.2552,37.08346 -33.24286,67.48084 -33.30596,67.54976 -0.063,0.0689 -0.5541,-0.82881 -1.0907,-1.99492 -1.6954,-3.68337 -4.78576,-5.99354 -9.70756,-7.25696 -1.3009,-0.33395 -8.28136,-1.70117 -15.51196,-3.03826 -7.23059,-1.33709 -13.60436,-2.64989 -14.16394,-2.91734 -0.94275,-0.45059 -1.0259,-0.71156 -1.13359,-3.55786 -0.18864,-4.98456 -1.07678,-4.70053 14.69898,-4.70053 10.61445,0 13.39645,-0.11039 14.26365,-0.56617 1.60266,-0.8422 12.56002,-12.06592 12.36132,-12.66189 -0.2663,-0.79899 -2.1642,-1.01948 -12.87982,-1.49629 -12.47103,-0.55492 -27.9146,-0.56282 -31.2847,-0.0159 -7.34826,1.19229 -11.56047,4.31248 -13.46848,9.97674 -0.61663,1.83057 -0.73105,3.48155 -0.73105,10.5489 0,7.91277 0.0515,8.49252 0.92667,10.42641 2.1572,4.767 5.04315,6.04638 19.22204,8.52144 3.84022,0.67035 9.93447,1.7799 13.54275,2.46568 8.42427,1.60107 8.40137,1.58219 8.40137,6.93565 0,4.34798 -0.584,6.11661 -2.3134,7.00538 -0.8585,0.44122 -4.97675,0.59462 -20.2292,0.75351 l -19.15124,0.19949 -0.10999,6.55306 c -0.0605,3.6042 0.0293,6.6872 0.19949,6.85113 0.50741,0.48872 14.57207,1.22973 28.51265,1.50226 l 13.04179,0.25493 -33.53934,68.02681 c -18.44664,37.41474 -33.52819,68.34101 -33.51454,68.72503 0.0256,0.71711 -0.0272,0.73525 -1.22717,0.42224 z M 718.45827,635.86136 c 6.27582,-1.75843 10.47867,-5.6248 12.68421,-11.66867 0.83412,-2.28574 0.84932,-2.75661 0.74413,-23.04075 -0.11357,-21.90268 -0.19738,-22.98509 -2.06254,-26.64113 -1.09349,-2.14342 -4.10003,-5.33465 -6.16728,-6.54614 -0.90285,-0.5291 -2.70447,-1.35895 -4.00359,-1.8441 -2.25303,-0.84139 -3.05248,-0.88866 -17.32744,-1.0247 -12.40402,-0.11823 -15.47699,-0.0363 -17.95429,0.47829 -5.74117,1.19268 -10.14525,4.23233 -12.55979,8.66859 -2.14639,3.94364 -2.18924,4.46126 -2.19437,26.49768 -0.005,21.78095 0.0326,22.26027 2.06254,26.24555 1.00208,1.96732 3.61499,4.80092 5.8363,6.32923 4.34176,2.98719 8.31311,3.48649 26.40907,3.3203 9.87024,-0.0907 12.61558,-0.23688 14.53305,-0.77415 z m -27.65053,-13.79035 c -1.76697,-0.43434 -3.25234,-1.57186 -4.23833,-3.24583 -0.7646,-1.29808 -0.79798,-2.07231 -0.79798,-18.51106 0,-16.50975 0.0305,-17.20896 0.80908,-18.55277 0.44884,-0.77467 1.51472,-1.75175 2.39391,-2.1944 1.48036,-0.74537 2.25487,-0.79071 11.75004,-0.68768 11.15009,0.12102 12.0519,0.29234 13.74809,2.61227 0.80286,1.09811 0.82372,1.57277 0.82372,18.75225 0,17.62103 -2.4e-4,17.62601 -0.904,19.07935 -1.6736,2.69128 -2.69201,2.92576 -13.06045,3.00709 -5.04715,0.0396 -9.78298,-0.077 -10.52408,-0.25922 z m 64.98543,3.57861 0.19949,-10.57308 14.36343,-0.20403 c 13.69847,-0.19459 14.48349,-0.24657 16.95684,-1.12281 5.25234,-1.86075 8.97737,-5.28175 10.82738,-9.94364 0.83696,-2.10905 0.92272,-3.04606 1.05851,-11.56573 0.15698,-9.84722 -0.11875,-12.88449 -1.50337,-16.56215 -1.65473,-4.39503 -6.12828,-8.08474 -11.81147,-9.7419 -2.07534,-0.60515 -4.96281,-0.70635 -23.83543,-0.83551 -14.602,-0.0999 -21.63535,-0.0133 -21.97813,0.27141 -0.70262,0.58313 -1.27303,69.68349 -0.58209,70.51602 0.36582,0.44078 2.0162,0.52896 8.2811,0.44249 l 7.82424,-0.10799 0.1995,-10.57308 z m 0,-35.72024 0,-11.00714 11.0718,0.12288 c 12.46152,0.13829 13.23883,0.29724 14.95563,3.05798 0.83658,1.34531 0.90302,1.90066 0.89088,7.44671 -0.0158,7.21757 -0.49116,8.61982 -3.39913,10.02733 -1.63603,0.79186 -2.62314,0.87844 -12.64687,1.10917 l -10.87231,0.25026 0,-11.00716 z m 102.45913,46.01403 c 0.54723,-0.54722 0.68438,-12.94322 0.15249,-13.7807 -0.24048,-0.37863 -4.46961,-0.51888 -18.04792,-0.59847 l -17.73386,-0.10401 0,-6.78273 0,-6.78273 7.18172,-0.19949 c 4.41827,-0.12275 7.48877,-0.37964 7.97968,-0.66765 1.54937,-0.90897 13.04983,-12.84881 12.87675,-13.36869 -0.13903,-0.41757 -3.0596,-0.56789 -14.10674,-0.72608 l -13.93141,-0.19949 0,-6.58324 0,-6.58324 17.51955,-0.104 c 12.30889,-0.073 17.68129,-0.23824 18.06343,-0.55539 0.42769,-0.35494 0.52056,-1.86703 0.43475,-7.07772 l -0.10919,-6.62633 -25.45594,-0.10268 c -17.09378,-0.069 -25.71127,0.034 -26.2332,0.31327 -0.7613,0.40746 -0.77727,1.13528 -0.77727,35.44607 0,19.26655 0.1197,35.14977 0.26599,35.29607 0.14629,0.14629 11.78066,0.26599 25.85418,0.26599 19.36994,0 25.70453,-0.11637 26.06695,-0.47879 z m 24.76434,-0.0565 c 0.31064,-0.37428 0.47531,-6.73913 0.5476,-21.16607 l 0.10333,-20.63082 13.96444,19.66397 c 7.68046,10.81518 14.5339,20.29503 15.22989,21.06632 l 1.26542,1.40236 8.1107,0 8.1107,0 0,-35.50959 0,-35.50959 -8.17917,0 -8.17918,0 -0.10321,21.04642 c -0.0922,18.78331 -0.27003,22.42369 -1.0039,20.54768 -0.37452,-0.95737 -28.68424,-40.40304 -29.49963,-41.10363 -0.73631,-0.63266 -1.63992,-0.69519 -8.64779,-0.59847 l -7.82554,0.10799 -0.10293,35.11061 c -0.0567,19.31083 -0.0174,35.33504 0.0873,35.60934 0.28497,0.74721 15.50029,0.71276 16.12213,-0.0364 z"
           id="path3416"
           inkscape:connector-curvature="0" /><path
           style="fill:#f8a354;fill-opacity:1"
           d="m 1061.6574,467.47319 c -0.1283,0.0938 -0.2387,0.18993 -0.289,0.26539 -0.1098,0.16449 -48.9469,21.99552 -108.52513,48.51511 l -108.32372,48.21891 -19.15107,0.19906 -19.15108,0.19905 -0.19904,8.24618 c -0.10972,4.53568 -0.30132,8.34667 -0.42416,8.46895 -0.12289,0.12222 -1.45037,0.77964 -2.95014,1.45968 -1.67073,0.75752 -2.51964,1.06652 -2.95489,0.75116 0.0891,1.446 0.16222,3.00823 0.21088,4.8624 0.14908,5.67917 0.0636,9.29756 -0.26302,11.23188 -1.23739,7.33009 -5.65332,12.13114 -13.2413,14.39057 -1.727,0.51422 -4.82899,0.67013 -16.00662,0.80565 l -13.86688,0.16826 0,10.11343 c 0,8.66259 -0.0886,10.20436 -0.62557,10.74139 -0.52534,0.52535 -1.83817,0.62556 -8.09927,0.62556 -5.27991,0 -7.61408,-0.14036 -7.95238,-0.47866 l -19.67476,-0.69198 c -2.48691,0.91049 -2.91718,0.9354 -17.71035,1.01891 -5.30064,0.0299 -10.16017,-0.0142 -13.44035,-0.0971 l 3.48803,0.24408 105.33092,66.17333 c 57.93244,36.3956 105.95777,66.59574 106.72188,67.10934 0.76415,0.5136 1.12144,0.91899 0.79618,0.90281 -0.32522,-0.0162 -79.31943,-30.62621 -175.54442,-68.02163 -52.21353,-20.29145 -96.09555,-37.32935 -128.6288,-49.95107 93.99197,36.69679 291.18267,113.41139 306.35563,119.11248 2.19441,0.82452 3.72005,1.52063 3.39089,1.54498 -0.40969,0.0303 -0.34722,0.1515 0.19905,0.38624 1.10313,0.47404 1.11096,0.47161 0.85544,-0.19431 -0.12874,-0.33546 14.31082,-30.11815 33.27387,-68.63298 18.42492,-37.42198 33.499,-68.07982 33.499,-68.13064 -6e-4,-0.0508 -4.62454,-0.1028 -10.27461,-0.1161 -11.00936,-0.0253 -29.2459,-0.86627 -30.72181,-1.41702 -0.87963,-0.32809 -0.89628,-0.46577 -0.89098,-6.63013 0.004,-3.46163 0.17599,-6.564 0.38388,-6.89316 0.32459,-0.51389 3.10121,-0.62487 19.64396,-0.79617 20.62166,-0.21355 20.71166,-0.22457 21.48036,-2.24639 0.2089,-0.54954 0.3792,-2.84353 0.3792,-5.09936 0,-3.44011 -0.1144,-4.20693 -0.7157,-4.75105 -0.8586,-0.77703 -3.2239,-1.29216 -17.83591,-3.89088 -15.99739,-2.84509 -19.09979,-3.92429 -21.43299,-7.45711 -1.87984,-2.84635 -2.10895,-4.17112 -2.10895,-12.26504 0,-6.76609 0.0974,-7.88134 0.89809,-10.3741 1.69996,-5.29196 4.86812,-8.10934 11.08022,-9.85751 3.00884,-0.84671 3.89961,-0.89582 16.15118,-0.88387 15.69896,0.0159 29.84428,0.75299 30.71228,1.59949 0.5164,0.50361 -0.2197,1.38232 -5.96186,7.13248 l -6.54956,6.55905 -13.67493,0.12088 c -15.54645,0.13517 -14.86918,-0.0205 -15.20333,3.45725 -0.27802,2.89302 0.10786,4.00117 1.61369,4.62545 0.70537,0.29243 7.29755,1.6336 14.64884,2.97859 7.35133,1.34499 14.26489,2.73413 15.36209,3.08757 4.8704,1.56893 7.47726,3.6245 9.01626,7.10879 l 0.8768,1.9881 3.4785,-7.17515 c 1.91246,-3.94605 16.80586,-34.19715 33.09846,-67.22307 16.2927,-33.02592 29.6341,-60.25425 29.6461,-60.50765 0.012,-0.25387 0.2619,-0.36815 0.5545,-0.25589 0.2926,0.11225 0.5331,0.0318 0.5331,-0.17773 0,-0.1072 -0.517,-0.1683 -1.2867,-0.19668 z m -328.62496,19.17477 -9.01159,0.51658 -0.24643,0.18957 c 1.08769,-0.13166 4.29857,-0.37091 9.25802,-0.70615 z m 189.53925,77.87909 c 6.2486,-0.005 7.55464,0.0951 8.08031,0.62083 0.5605,0.56041 0.62559,4.32638 0.62559,35.47997 0,31.83547 -0.056,34.91277 -0.65639,35.51314 -0.5736,0.57364 -1.61171,0.6395 -8.15141,0.52605 -6.77456,-0.11757 -7.59772,-0.2063 -8.57082,-0.93362 -0.59203,-0.44248 -7.5609,-9.92267 -15.48768,-21.06572 l -14.41188,-20.26004 -0.10427,20.6297 c -0.0722,14.42567 -0.23675,20.79095 -0.54738,21.16523 -0.34272,0.4129 -2.15869,0.53317 -7.94762,0.53317 -6.28924,0 -7.60456,-0.10001 -8.13009,-0.62557 -0.56035,-0.56043 -0.62795,-4.32876 -0.62795,-35.48234 0,-31.15359 0.0675,-34.91956 0.62795,-35.47997 0.52418,-0.52413 1.78301,-0.62402 7.67987,-0.60899 4.59098,0.012 7.43737,0.18471 8.1514,0.49763 1.0369,0.45436 7.45715,9.17502 25.27412,34.32596 l 5.31974,7.50926 0.11371,-20.79084 c 0.098,-17.96352 0.19619,-20.8433 0.71323,-21.16998 0.32917,-0.20796 3.95069,-0.38121 8.04954,-0.38387 z m -76.38393,0.16113 c 10.43374,-0.0483 12.26313,0.0764 12.6655,0.47865 0.49274,0.49274 0.60898,1.79529 0.60898,6.8837 0,4.34891 -0.14685,6.42153 -0.47867,6.75334 -0.35797,0.35802 -4.9406,0.47864 -18.15585,0.47864 l -17.67483,0 0,6.58276 0,6.58511 13.71762,0 c 11.9544,0 13.78283,0.0794 14.23416,0.6232 0.44735,0.53901 -0.42892,1.57079 -6.43109,7.58033 l -6.94766,6.95713 -7.28651,0 -7.28652,0 0,6.78179 0,6.78417 17.32414,0 c 9.52774,-10e-6 17.60731,0.10852 17.95443,0.24168 0.54251,0.20821 0.63031,1.2317 0.63031,7.30073 0,4.95853 -0.14235,7.20138 -0.47865,7.53769 -0.74116,0.74115 -50.95376,0.68622 -51.97,-0.057 -0.70461,-0.51522 -0.72438,-1.89761 -0.52841,-35.53448 0.11358,-19.50565 0.35997,-35.14356 0.55685,-35.32356 0.19431,-0.17762 11.88382,-0.42536 25.97788,-0.55212 5.65581,-0.0508 10.09041,-0.0858 13.56832,-0.10188 z m -72.60205,31.3237 -8.8623,3.97144 c -2.86645,0.0842 -5.73287,0.17002 -8.59926,0.25588 l 0,0.24644 11.07311,-0.12794 c 10.28733,-0.11877 11.16785,-0.18619 12.45223,-0.94073 2.00727,-1.17922 2.77894,-2.80922 3.26294,-6.90262 z"
           id="path3422"
           inkscape:connector-curvature="0"
           sodipodi:nodetypes="ccccccccccsssscsssccsccsccscscccscccccscssssssscsccccssscccsccsccccccccscscccccscscccccccccccscscccssccccccscsscsccccccccsscc" /><path
           style="fill:#f6924f;fill-opacity:1"
           d="m 674.9697,633.18006 c 0.92619,0.6067 -3.52353,0.65447 -62.24217,0.66823 -30.08414,0.006 -55.53319,-0.10441 -62.07396,-0.25593 15.91908,6.43665 334.05911,130.29777 351.51303,136.84181 l 0,-0.003 c 2.92911,1.09822 4.00021,1.18879 2.3933,0.20141 -0.65833,-0.40453 -49.13341,-30.86593 -107.72423,-67.69226 l -106.52994,-66.95766 -4.56385,-0.31517 c -7.01768,0.18507 -10.77218,-2.48778 -10.77218,-2.48778 z"
           id="path3424"
           inkscape:connector-curvature="0"
           sodipodi:nodetypes="ccccccsccc" /><path
           sodipodi:nodetypes="cssscsccssscccscccssscscsscsscssscscccsscssscccccccscsccccc"
           style="fill:#f47f4a;fill-opacity:1"
           d="m 552.98416,633.80929 c -0.39071,-0.24688 1.88543,-2.39187 8.33417,-7.85391 49.97511,-42.32878 161.84032,-136.8354 162.45834,-137.24902 0.59895,-0.40086 41.1279,-2.8414 165.16082,-9.94551 90.40193,-5.17789 164.28251,-9.55064 164.17931,-9.71724 -0.1034,-0.16659 1.1399,-0.30289 2.7626,-0.30289 1.6226,0 3.553,-0.0858 4.2897,-0.19081 l 1.3393,-0.19078 -1.3889,0.51089 c -0.764,0.28098 -2.1927,0.87847 -3.175,1.32773 -0.9822,0.44926 -49.5908,22.02966 -108.01893,47.95647 l -101.48021,47.47913 -9.35718,0.44239 -29.38718,0.10289 -0.19843,6.62391 c -0.1315,4.3894 0,0 -0.73636,9.5201 -8.3915,-0.32411 -7.80917,1.88828 -8.0781,1.72256 -0.16978,-0.10462 -0.31081,-1.02564 -0.3134,-2.04667 -0.014,-5.55061 -3.50043,-11.46539 -8.29032,-14.065 -1.08037,-0.58634 -3.3456,-1.41836 -5.03385,-1.84893 -2.87297,-0.73269 -4.44785,-0.78284 -24.59274,-0.78284 -19.26021,0 -21.5485,0.0658 -21.76407,0.62599 -0.13249,0.3443 -0.24088,10.64932 -0.24088,22.90008 l 0,22.2741 -2.87728,1.28682 c -1.58249,0.70776 -3.1005,1.37395 -3.37334,1.48042 -0.39182,0.1529 -0.49755,-3.16338 -0.50297,-15.77737 -0.008,-17.70942 -0.19475,-19.55034 -2.40777,-23.69065 -2.23144,-4.17476 -6.6572,-7.43579 -11.8725,-8.74804 -3.11545,-0.78389 -30.97437,-0.79049 -34.13037,-0.008 -5.31022,1.31647 -10.10736,4.8633 -12.25485,9.06081 -1.89188,3.69791 -2.02016,5.33719 -2.02642,25.89646 -0.006,20.42812 0.0951,21.7988 1.89507,25.63075 0.9759,2.0776 4.35744,5.88232 6.43324,7.23828 0.92124,0.60176 -3.5042,0.64914 -61.91091,0.66278 -34.59669,0.008 -63.14494,-0.13814 -63.44059,-0.32494 z m 137.89413,-12.3272 c -1.68973,-0.50423 -3.26762,-2.20088 -3.78974,-4.07499 -0.32317,-1.16002 -0.42378,-6.51687 -0.33974,-18.08944 0.13247,-18.23509 0.0656,-17.77504 2.80201,-19.26615 1.10162,-0.60027 2.59524,-0.71986 10.41397,-0.83381 10.32849,-0.15052 12.58867,0.14609 14.24431,1.8693 1.67022,1.73841 1.9042,4.54622 1.75931,21.11004 -0.12712,14.52731 -0.14283,14.77497 -1.04526,16.46087 -1.59585,2.98126 -2.61978,3.22215 -13.56934,3.19242 -5.12947,-0.014 -9.84346,-0.17963 -10.47552,-0.36824 z m 65.24288,-31.4463 0,-10.48719 10.81456,0.009 c 9.86061,0.008 10.96486,0.0766 12.51836,0.77979 2.20564,0.99819 3.10556,2.95836 3.47938,7.57853 0.26784,3.31049 0.24644,3.43964 -0.66733,4.02548 -0.51924,0.3329 -5.01036,2.39999 -9.98029,4.59356 l -9.03621,3.98829 -3.56425,0 -3.56422,0 0,-10.48718 z"
           id="path3432"
           inkscape:connector-curvature="0" /><path
           style="fill:#f26c45;fill-opacity:1"
           d="m 551.8731,633.24516 c 2.12753,-2.04845 170.29772,-145.58351 170.7961,-145.7763 0.4151,-0.16058 0.45091,0.086 0.16607,1.14468 -0.19968,0.74216 -4.25711,17.64459 -9.01649,37.56098 -4.75939,19.91639 -8.8262,36.62128 -9.03735,37.12197 -0.38234,0.90664 -0.4219,0.91038 -9.7241,0.91632 -6.91021,0.004 -10.00919,0.16496 -11.91165,0.61702 -7.16594,1.70277 -12.38953,7.0713 -13.90824,14.29414 -0.82531,3.92516 -0.81577,39.51807 0.0121,43.45429 0.78216,3.72094 2.71839,7.21684 5.32951,9.62253 l 2.17266,2.00169 -62.93623,0 -62.93621,0 0.99427,-0.95732 z m 136.65904,-12.46238 c -2.17384,-1.72375 -2.21309,-2.09031 -2.21146,-20.65479 9.1e-4,-16.44503 0.0328,-17.15914 0.81151,-18.4466 1.27758,-2.11238 2.84731,-2.54489 8.76442,-2.41488 l 5.13299,0.11275 -5.04739,21.13603 c -5.4528,22.83359 -5.17316,22.07291 -7.45007,20.26746 z"
           id="path3440"
           inkscape:connector-curvature="0" /></g></g></g></svg>