<?xml version="1.0" encoding="UTF-8" standalone="no"?>
<!-- Created with Inkscape (http://www.inkscape.org/) -->

<svg
   xmlns:dc="http://purl.org/dc/elements/1.1/"
   xmlns:cc="http://creativecommons.org/ns#"
   xmlns:rdf="http://www.w3.org/1999/02/22-rdf-syntax-ns#"
   xmlns:svg="http://www.w3.org/2000/svg"
   xmlns="http://www.w3.org/2000/svg"
   xmlns:sodipodi="http://sodipodi.sourceforge.net/DTD/sodipodi-0.dtd"
   xmlns:inkscape="http://www.inkscape.org/namespaces/inkscape"
   width="200"
   height="50"
   viewBox="0 0 200 50.000001"
   id="svg5508"
   version="1.1"
   inkscape:version="0.91 r13725"
   sodipodi:docname="fornecedores.svg"
   inkscape:export-filename="/home/ferox/Imagens/broffice.png"
   inkscape:export-xdpi="90"
   inkscape:export-ydpi="90">
  <defs
     id="defs5510">
    <style
       id="style8044"
       type="text/css">
   
    .fil2 {fill:#003082}
    .fil1 {fill:#00923F;fill-rule:nonzero}
    .fil0 {fill:#003082;fill-rule:nonzero}
   
  </style>
    <metadata
       id="CorelCorpID_0Corel-Layer" />
  </defs>
  <sodipodi:namedview
     id="base"
     pagecolor="#ffffff"
     bordercolor="#666666"
     borderopacity="1.0"
     inkscape:pageopacity="0.0"
     inkscape:pageshadow="2"
     inkscape:zoom="2"
     inkscape:cx="62.129254"
     inkscape:cy="55.644609"
     inkscape:document-units="px"
     inkscape:current-layer="layer1"
     showgrid="false"
     units="px"
     inkscape:window-width="1920"
     inkscape:window-height="1029"
     inkscape:window-x="0"
     inkscape:window-y="22"
     inkscape:window-maximized="1" />
  <metadata
     id="metadata5513">
    <rdf:RDF>
      <cc:Work
         rdf:about="">
        <dc:format>image/svg+xml</dc:format>
        <dc:type
           rdf:resource="http://purl.org/dc/dcmitype/StillImage" />
        <dc:title></dc:title>
      </cc:Work>
    </rdf:RDF>
  </metadata>
  <g
     inkscape:label="Camada 1"
     inkscape:groupmode="layer"
     id="layer1"
     transform="translate(0,-1002.3622)">
    <g
       id="layer1-6"
       transform="matrix(0.09074931,0,0,0.09074931,103.76584,991.13454)">
      <g
         id="g3108">
        <path
           style="overflow:visible"
           id="path33"
           d="m -416.45046,380.03469 c -0.41377,0.4322 -0.41377,69.0156 -1.26888,86.9178 -0.84591,14.4725 -2.13317,45.5782 -32.80678,45.5782 -31.52872,0 -39.19712,-36.218 -41.75325,-51.9686 -2.97909,-17.47 -2.97909,-31.97 -2.97909,-38.342 0,-20.4583 1.27807,-77.5667 49.42165,-77.5667 14.49089,0 22.58225,4.2755 28.97258,7.6684 l 0.41377,27.7129 z M -540,430.32069 c 0,120.1383 63.91254,120.1383 73.28197,120.1383 26.41645,0 43.46347,-14.4909 50.69972,-39.6201 l 0.85511,37.9098 c 8.10055,-0.4321 16.19191,-1.278 29.39554,-1.278 4.68931,0 8.51431,0 11.93475,0.4321 3.41125,0 6.81329,0.4138 10.64749,0.8459 -6.81329,-13.6265 -11.92556,-44.3002 -11.92556,-110.7872 0,-64.7585 0,-174.2493 5.53523,-207.4882 -15.32761,7.2546 -28.54962,11.9439 -57.52221,14.4909 11.50261,12.3577 11.50261,18.748 11.50261,74.9738 -8.08217,-2.547 -18.3159,-5.5352 -35.78588,-5.5352 -76.26106,0.009 -88.61877,66.4778 -88.61877,115.9179"
           inkscape:connector-curvature="0" />
        <path
           style="overflow:visible"
           id="path35"
           d="m -308.93653,408.56589 c 0.43215,-35.3629 7.6776,-66.8916 37.91905,-66.8916 33.23894,0 35.77668,36.6318 34.93077,66.8916 l -72.84982,0 z m 115.02602,4.2756 c 0,-49.8538 -9.79238,-98.8617 -72.84981,-98.8617 -86.90855,0 -86.90855,96.3148 -86.90855,116.7454 0,86.4856 38.76496,120.5705 103.95557,120.5705 28.95419,0 43.03132,-4.2388 50.69972,-6.3904 -0.42296,-15.3368 1.70103,-25.1383 4.27555,-38.342 -8.96486,5.5536 -20.46746,12.7899 -46.0288,12.7899 -66.46868,0 -67.32379,-60.5197 -67.32379,-81.3917 l 113.35259,0 0.82752,-25.12"
           inkscape:connector-curvature="0" />
        <path
           style="overflow:visible"
           id="path37"
           d="m -55.30001,431.15739 c 0,39.6201 -7.23625,92.8851 -56.6579,92.8851 -6.82249,0 -15.3368,-1.2964 -20.87203,-2.5653 -0.85511,-15.3368 -0.85511,-41.7533 -0.85511,-72.4269 0,-36.6502 3.82501,-55.7936 6.82249,-65.1906 8.93727,-30.2414 28.96339,-30.6552 32.78839,-30.6552 32.38383,0 38.77416,44.7323 38.77416,77.9529 z m -122.27147,46.4425 c 0,31.538 0,49.4217 -5.11227,63.0483 17.46998,6.8225 39.18793,10.6475 65.19061,10.6475 16.61487,0 64.75846,0 90.74276,-53.2467 12.35771,-24.7154 16.61487,-57.9543 16.61487,-83.0927 0,-15.3368 -1.71022,-48.9895 -14.05874,-70.3029 -11.91636,-20.0077 -31.09656,-30.2415 -51.53644,-30.2415 -40.90734,0 -52.8329,34.0849 -59.21404,51.5549 0,-21.7272 0.41377,-97.5653 3.81581,-136.3394 -27.68532,12.7898 -44.74153,14.9046 -63.04823,16.6148 16.61487,6.8041 16.61487,34.9492 16.61487,126.5563 l 0,104.8014"
           inkscape:connector-curvature="0" />
        <path
           style="overflow:visible"
           id="path39"
           d="m 71.77111,548.74869 c -8.53271,-1.278 -14.50928,-2.1331 -26.86699,-2.1331 -13.6082,0 -23.00521,0.8643 -32.7884,2.1331 4.25716,-8.1005 5.95819,-11.9439 7.23625,-39.62 1.71022,-37.9283 2.13318,-139.3369 -0.84591,-160.6411 -2.13318,-16.2011 -5.95818,-18.748 -11.92556,-23.0052 34.93076,-3.4112 44.73234,-5.9582 60.91506,-13.6266 -3.39285,18.7297 -3.8434,28.1267 -3.8434,56.6579 -0.83672,147.0145 -1.26887,162.7651 8.11895,180.235"
           inkscape:connector-curvature="0" />
        <path
           style="overflow:visible"
           id="path41"
           d="m 208.20246,428.15989 c -0.84592,26.8486 -1.27807,45.5967 -8.53271,60.5013 -8.94647,19.1802 -23.85112,24.7154 -34.93077,24.7154 -25.58892,0 -31.10575,-21.295 -31.10575,-42.167 0,-40.043 35.79506,-43.0497 51.96859,-43.0497 l 22.60064,0 z m -117.1776,52.4191 c 0,26.8486 8.10056,53.6788 31.97007,65.1906 10.64749,4.6894 21.29498,4.6894 24.71542,4.6894 39.20631,0 52.40075,-28.9818 60.5013,-46.8748 -0.43215,18.7481 0,30.2415 1.27807,45.1645 7.6684,-0.4321 15.3368,-1.278 28.12666,-1.278 7.23625,0 14.05874,0.8459 21.29499,1.278 -4.68931,-7.2362 -7.23625,-11.5118 -8.53271,-28.1266 -0.84591,-16.1827 -0.84591,-32.3747 -0.84591,-54.9569 l 0.43215,-86.9178 c 0,-32.393 -8.5327,-64.3446 -72.44525,-64.3446 -42.16701,0 -66.87324,12.7898 -79.23095,19.1801 5.12146,9.3787 9.37862,17.4516 13.20362,35.7951 16.63326,-14.4909 38.3604,-22.1593 60.5013,-22.1593 35.38131,0 35.38131,23.4374 35.38131,56.6579 -8.10055,-0.4137 -14.92304,-1.2596 -26.43484,-1.2596 -54.12935,0.01 -89.91523,20.8536 -89.91523,77.962"
           inkscape:connector-curvature="0" />
        <path
           style="overflow:visible"
           id="path43"
           d="m 453.6097,506.57249 c 0.43215,14.4909 0.43215,29.8277 6.3903,42.1854 -9.38778,-0.8459 -14.92301,-2.1331 -32.3746,-2.1331 -10.23373,0 -15.76895,0.8643 -23.86951,2.1331 1.69183,-5.5352 2.56533,-7.6684 3.41125,-14.923 1.27806,-9.7832 2.13317,-42.5992 2.13317,-54.111 l 0,-46.0104 c 0,-20.0261 0,-49.0079 -1.29645,-59.2232 -0.84592,-7.2363 -2.96071,-26.8302 -27.69452,-26.8302 -24.28327,0 -32.37463,17.8837 -35.36292,32.3746 -3.39285,14.9047 -3.39285,31.1058 -3.39285,94.154 0.41376,54.5431 0.41376,59.637 4.67092,74.56 -7.23625,-0.8459 -16.18272,-1.6918 -28.96339,-1.6918 -10.23373,0 -17.04702,0.4138 -25.55214,1.6918 2.97909,-6.8224 4.68931,-10.2337 5.53522,-34.0848 0.86431,-23.4374 2.56533,-138.4818 -1.29645,-165.735 -2.11479,-16.6332 -6.39034,-20.4582 -11.06126,-24.7154 34.517,-1.7102 45.57826,-7.2546 56.24414,-12.7715 l 0,45.1462 c 5.10307,-13.2221 15.75057,-42.6176 58.36812,-42.6176 53.26505,0 53.67882,38.7742 54.11097,64.3263 l 0,128.2756"
           inkscape:connector-curvature="0" />
        <path
           style="overflow:visible;fill:#d70751"
           id="path45"
           d="m 75.36625,251.55679 -35.28936,35.271 -35.27097,-35.271 35.27097,-35.27097 35.28936,35.27097"
           inkscape:connector-curvature="0" />
      </g>
    </g>
  </g>
</svg>
