<?xml version="1.0" encoding="UTF-8" standalone="no"?>
<!-- Created with Inkscape (http://www.inkscape.org/) -->

<svg
   xmlns:dc="http://purl.org/dc/elements/1.1/"
   xmlns:cc="http://creativecommons.org/ns#"
   xmlns:rdf="http://www.w3.org/1999/02/22-rdf-syntax-ns#"
   xmlns:svg="http://www.w3.org/2000/svg"
   xmlns="http://www.w3.org/2000/svg"
   xmlns:sodipodi="http://sodipodi.sourceforge.net/DTD/sodipodi-0.dtd"
   xmlns:inkscape="http://www.inkscape.org/namespaces/inkscape"
   id="svg2"
   version="1.1"
   inkscape:version="0.92.0 r"
   xml:space="preserve"
   width="213.33333"
   height="213.33333"
   viewBox="0 0 200 200"
   sodipodi:docname="logo_cbpf.svg"><metadata
     id="metadata8"><rdf:RDF><cc:Work
         rdf:about=""><dc:format>image/svg+xml</dc:format><dc:type
           rdf:resource="http://purl.org/dc/dcmitype/StillImage" /><dc:title></dc:title></cc:Work></rdf:RDF></metadata><defs
     id="defs6" /><sodipodi:namedview
     pagecolor="#ffffff"
     bordercolor="#666666"
     borderopacity="1"
     objecttolerance="10"
     gridtolerance="10"
     guidetolerance="10"
     inkscape:pageopacity="0"
     inkscape:pageshadow="2"
     inkscape:window-width="1366"
     inkscape:window-height="715"
     id="namedview4"
     showgrid="false"
     inkscape:zoom="1.3888349"
     inkscape:cx="67.426541"
     inkscape:cy="132.02471"
     inkscape:window-x="0"
     inkscape:window-y="24"
     inkscape:window-maximized="1"
     inkscape:current-layer="g12" /><g
     id="g10"
     inkscape:groupmode="layer"
     inkscape:label="ink_ext_XXXXXX"
     transform="matrix(1.25,0,0,-1.25,0,200)"><g
       id="g12"
       transform="scale(0.1)"><rect
         style="opacity:1;fill:#ffffff;fill-opacity:1"
         id="rect4648"
         width="1598.689"
         height="1600.7256"
         x="-4.2363163e-06"
         y="0.00012207031" /><g
         id="g4495"
         transform="matrix(6.1232138,0,0,-6.1232138,-999.29643,3205.4524)"><path
           inkscape:connector-curvature="0"
           d="m 344.9336,388.9245 c 0,41.1511 -21.8418,74.5143 -48.7834,74.5143 -26.9425,0 -48.7817,-33.3632 -48.7817,-74.5143 0,-41.1523 21.8392,-74.5138 48.7817,-74.5138 26.9416,0 48.7834,33.3615 48.7834,74.5138 z"
           style="fill:none;fill-rule:evenodd;stroke:#043584;stroke-width:1.79999995;stroke-linecap:butt;stroke-linejoin:miter;stroke-miterlimit:4;stroke-dasharray:none;stroke-opacity:1"
           id="path2" /><path
           inkscape:connector-curvature="0"
           d="m 319.4306,421.7253 c -38.9855,30.2224 -81.6157,40.5093 -95.213,22.9705 -13.5966,-17.539 6.9891,-56.2606 45.9769,-86.4853 38.9863,-30.2255 81.6111,-40.5088 95.2109,-22.97 13.5966,17.5371 -6.9885,56.2601 -45.9748,86.4848 z"
           style="fill:none;fill-rule:evenodd;stroke:#043584;stroke-width:1.79999995;stroke-linecap:butt;stroke-linejoin:miter;stroke-miterlimit:4;stroke-dasharray:none;stroke-opacity:1"
           id="path4" /><path
           inkscape:connector-curvature="0"
           d="m 319.6746,357.7 c 39.2823,29.8417 60.2433,68.36 46.8216,86.0301 -13.4241,17.6737 -56.1555,7.8026 -95.4358,-22.0394 -39.2808,-29.8386 -60.2418,-68.3529 -46.8164,-86.0261 13.4218,-17.6709 56.1523,-7.8041 95.4306,22.0354 z"
           style="fill:none;fill-rule:evenodd;stroke:#043584;stroke-width:1.79999995;stroke-linecap:butt;stroke-linejoin:miter;stroke-miterlimit:4;stroke-dasharray:none;stroke-opacity:1"
           id="path6" /><path
           inkscape:connector-curvature="0"
           d="m 305.0546,400.654 h -16.0852 v -30.0277 h 16.0852 z"
           style="fill:#043584;fill-opacity:1;fill-rule:evenodd"
           id="path13" /><path
           inkscape:connector-curvature="0"
           d="m 311.9922,400.654 h -5.3643 v -28.4191 h 5.3643 z"
           style="fill:#043584;fill-opacity:1;fill-rule:evenodd"
           id="path15" /><path
           inkscape:connector-curvature="0"
           d="m 287.3254,400.654 h -5.3643 v -28.4191 h 5.3643 z"
           style="fill:#043584;fill-opacity:1;fill-rule:evenodd"
           id="path17" /><path
           inkscape:connector-curvature="0"
           d="m 295.9739,425.3896 h -7.0405 v -23.057 h 7.0405 z"
           style="fill:#043584;fill-opacity:1;fill-rule:evenodd"
           id="path19" /><path
           inkscape:connector-curvature="0"
           d="m 305.0546,425.3896 h -7.0409 v -23.057 h 7.0409 z"
           style="fill:#043584;fill-opacity:1;fill-rule:evenodd"
           id="path21" /><path
           inkscape:connector-curvature="0"
           d="m 304.6445,361.5103 c 0,3.9391 -3.1944,7.132 -7.132,7.132 -3.939,0 -7.132,-3.1929 -7.132,-7.132 0,-3.9387 3.193,-7.1311 7.132,-7.1311 3.9376,0 7.132,3.1924 7.132,7.1311 z"
           style="fill:#043584;fill-opacity:1;fill-rule:evenodd"
           id="path23" /></g></g></g></svg>