<?xml version="1.0" encoding="UTF-8" standalone="no"?>
<!-- Created with Inkscape (http://www.inkscape.org/) -->

<svg
   xmlns:dc="http://purl.org/dc/elements/1.1/"
   xmlns:cc="http://creativecommons.org/ns#"
   xmlns:rdf="http://www.w3.org/1999/02/22-rdf-syntax-ns#"
   xmlns:svg="http://www.w3.org/2000/svg"
   xmlns="http://www.w3.org/2000/svg"
   xmlns:sodipodi="http://sodipodi.sourceforge.net/DTD/sodipodi-0.dtd"
   xmlns:inkscape="http://www.inkscape.org/namespaces/inkscape"
   id="svg2"
   version="1.1"
   inkscape:version="0.91 r13725"
   xml:space="preserve"
   width="200"
   height="200"
   viewBox="0 0 200 200"
   sodipodi:docname="logo_arenda.svg"><metadata
     id="metadata8"><rdf:RDF><cc:Work
         rdf:about=""><dc:format>image/svg+xml</dc:format><dc:type
           rdf:resource="http://purl.org/dc/dcmitype/StillImage" /><dc:title /></cc:Work></rdf:RDF></metadata><defs
     id="defs6" /><sodipodi:namedview
     pagecolor="#ffffff"
     bordercolor="#666666"
     borderopacity="1"
     objecttolerance="10"
     gridtolerance="10"
     guidetolerance="10"
     inkscape:pageopacity="0"
     inkscape:pageshadow="2"
     inkscape:window-width="1366"
     inkscape:window-height="713"
     id="namedview4"
     showgrid="false"
     inkscape:zoom="0.9820546"
     inkscape:cx="67.426541"
     inkscape:cy="50.833965"
     inkscape:window-x="0"
     inkscape:window-y="26"
     inkscape:window-maximized="1"
     inkscape:current-layer="g12" /><g
     id="g10"
     inkscape:groupmode="layer"
     inkscape:label="ink_ext_XXXXXX"
     transform="matrix(1.25,0,0,-1.25,0,200)"><g
       id="g12"
       transform="scale(0.1,0.1)"><rect
         style="opacity:1;fill:#ffffff;fill-opacity:1"
         id="rect4648"
         width="1598.689"
         height="1600.7256"
         x="-4.2363163e-06"
         y="0.00012207031" /><path
         style="opacity:1;fill:#b2becc;fill-opacity:1;stroke:none;stroke-width:4;stroke-miterlimit:4;stroke-dasharray:none;stroke-opacity:1"
         d=""
         id="path3508"
         inkscape:connector-curvature="0" /><path
         style="opacity:1;fill:#e25f25;fill-opacity:1;stroke:none;stroke-width:4;stroke-miterlimit:4;stroke-dasharray:none;stroke-opacity:1"
         d=""
         id="path3518"
         inkscape:connector-curvature="0" /><g
         id="g4337"
         transform="matrix(5.4708259,0,0,-5.4708259,2538.5048,1958.4002)"><path
           inkscape:connector-curvature="0"
           id="path3463"
           d="m -425.04191,243.72637 c 0.10108,-0.46561 0.44849,-2.34592 0.77203,-4.17847 1.52235,-8.62257 4.65795,-19.07175 8.13328,-27.1036 9.8244,-22.70523 27.80399,-41.53897 51.99447,-54.46455 l 3.49452,-1.86721 3.11472,5.43681 c 1.71309,2.99024 3.19528,5.63598 3.29374,5.87941 0.1064,0.26306 -0.99784,1.03727 -2.72199,1.90846 -14.91874,7.53823 -28.2269,19.35731 -37.57933,33.37449 -3.20425,4.80244 -7.53994,13.4542 -9.0908,18.14043 -1.32337,3.99886 -2.69263,10.34093 -2.69263,12.47166 0,1.40843 -0.048,1.45838 -2.68404,2.79332 -1.47622,0.74758 -5.72912,2.95597 -9.45089,4.90752 -5.96781,3.12929 -6.74515,3.44831 -6.58308,2.70173 z"
           style="opacity:1;fill:#e2e7ea;fill-opacity:1;stroke:none;stroke-width:4;stroke-miterlimit:4;stroke-dasharray:none;stroke-opacity:1" /><path
           inkscape:connector-curvature="0"
           id="path3465"
           d="m -414.09837,250.3829 c -1.83255,-1.01728 -5.05417,-2.80809 -7.15914,-3.97958 l -3.82723,-2.12999 9.19531,-4.80651 9.19532,-4.80651 1.59391,0.76901 1.5939,0.76902 -0.22459,2.2301 c -0.13189,1.30969 -0.0134,3.42824 0.28711,5.13313 l 0.51169,2.90304 -3.54697,2.67418 c -1.95083,1.47079 -3.71356,2.76857 -3.91718,2.88394 -0.20362,0.11537 -1.86957,-0.62256 -3.70213,-1.63983 z"
           style="opacity:1;fill:#97a8b9;fill-opacity:1;stroke:none;stroke-width:4;stroke-miterlimit:4;stroke-dasharray:none;stroke-opacity:1" /><path
           sodipodi:nodetypes="cssssssssscssscsscsc"
           inkscape:connector-curvature="0"
           id="path3467"
           d="m -405.92464,235.88561 c -1.21317,-0.60337 -0.61741,-2.23886 -0.38118,-4.28006 1.37526,-11.88318 7.44029,-25.03843 17.07604,-37.03853 3.28098,-4.08604 10.20208,-11.01373 14.18888,-14.20239 4.55333,-3.64178 11.78425,-8.37112 16.46203,-10.7669 4.02363,-2.06075 4.06268,-2.07184 4.36987,-1.24143 0.21605,0.58405 0.16374,0.88611 -0.17267,0.99705 -2.62724,0.86639 -11.39506,6.40154 -16.772,10.58821 -5.56642,4.33421 -10.92128,9.61262 -10.92128,10.76537 0,0.22602 1.4793,2.12485 3.28732,4.21962 l 4.21286,3.43848 -3.14521,3.8393 c -1.84639,2.25385 -2.43312,3.46908 -2.94926,3.46908 -0.6747,0 -8.05526,-0.83115 -11.66608,-1.31375 l -1.56037,-0.20856 -2.46901,4.92605 c -4.43053,8.83962 -6.57616,15.66149 -7.05116,22.41862 -0.1324,1.88346 -0.11664,4.69653 -0.11664,4.69653 0,0 -1.72088,0.0272 -2.39211,-0.30669 z"
           style="opacity:1;fill:#97a8b9;fill-opacity:1;stroke:none;stroke-width:4;stroke-miterlimit:4;stroke-dasharray:none;stroke-opacity:1" /><path
           sodipodi:nodetypes="sccscscs"
           inkscape:connector-curvature="0"
           id="path3469"
           d="m -377.26218,191.71885 -4.99787,-1.00306 c 5.0762,-7.53456 19.19596,-17.08864 28.04362,-21.6533 7.99909,-4.05492 20.92554,-8.29975 21.19681,-8.02848 0.1399,0.1399 -1.22217,10.01014 -1.3973,10.12561 -0.0471,0.0311 -8.04614,4.91477 -17.77561,10.85269 -14.08945,8.59881 -17.93234,10.78739 -18.88086,10.75291 -0.655,-0.0238 -3.43996,-0.49468 -6.18879,-1.04637 z"
           style="opacity:1;fill:#e7ebee;fill-opacity:1;stroke:none;stroke-width:4;stroke-miterlimit:4;stroke-dasharray:none;stroke-opacity:1" /><path
           inkscape:connector-curvature="0"
           id="path3471"
           d="m -373.48436,199.24776 c -2.48625,-1.39324 -3.62029,-2.35053 -5.98352,-5.05096 -1.88854,-2.15799 -2.7286,-3.37142 -2.38433,-3.44403 0.29234,-0.0617 2.7515,0.31317 5.4648,0.83298 2.71329,0.5198 5.18857,0.94509 5.50062,0.94509 0.31205,0 8.71948,-4.98465 18.68319,-11.077 l 18.11583,-11.07701 3.80894,5.58066 3.80894,5.58066 -12.40149,6.63671 -12.40149,6.6367 -3.8229,-2.60221 c -3.72537,-2.53582 -3.84557,-2.58684 -4.71114,-1.99951 -2.23286,1.51508 -5.5044,4.62699 -7.94474,7.55707 l -2.66505,3.1999 -3.06766,-1.71905 z"
           style="opacity:1;fill:#98aab7;fill-opacity:1;stroke:none;stroke-width:4;stroke-miterlimit:4;stroke-dasharray:none;stroke-opacity:1" /><path
           inkscape:connector-curvature="0"
           id="path3473"
           d="m -330.56074,176.26173 -4.05867,-5.21118 0.82386,-5.03688 0.82384,-5.03687 3.36462,5.20626 3.36462,5.20628 -0.12981,5.04178 -0.12978,5.04178 -4.05868,-5.21117 z"
           style="opacity:1;fill:#98aab7;fill-opacity:1;stroke:none;stroke-width:4;stroke-miterlimit:4;stroke-dasharray:none;stroke-opacity:1" /><path
           sodipodi:nodetypes="sscssssssscscs"
           inkscape:connector-curvature="0"
           id="path3475"
           d="m -328.76903,168.78631 c -1.08333,-2.00366 -2.45241,-4.48823 -3.0424,-5.52125 l -1.0727,-1.87823 -4.28795,1.81719 c -2.35838,0.99945 -4.42971,1.81718 -4.60296,1.81718 -0.33067,0 -2.63881,-2.59952 -2.4367,-2.80163 0.0643,-0.0643 2.12758,-0.69735 3.78529,-1.40688 3.86701,-1.65515 9.20392,-3.36187 13.54015,-4.33009 3.61715,-0.80766 14.35366,-2.56521 15.68022,-2.56683 0.68799,-8.4e-4 1.06494,0.83198 3.05764,6.75543 1.2501,3.71601 2.27139,6.96463 2.26952,7.21915 -0.002,0.32497 -0.7606,0.46277 -2.54638,0.46277 -4.22774,0 -12.20194,1.73576 -17.8992,3.89616 -0.30099,0.11413 -1.19598,-1.15373 -2.44453,-3.46297 z"
           style="opacity:1;fill:#e26326;fill-opacity:1;stroke:none;stroke-width:4;stroke-miterlimit:4;stroke-dasharray:none;stroke-opacity:1" /><path
           inkscape:connector-curvature="0"
           id="path3477"
           d="m -308.43513,161.33698 c -1.18449,-3.57303 -2.04974,-6.76713 -1.92278,-7.09799 0.12697,-0.33087 2.01134,-3.5024 4.18751,-7.04784 3.08777,-5.03066 4.01713,-6.29708 4.23203,-5.76691 0.15145,0.37365 0.86852,3.98035 1.59349,8.01488 l 1.31812,7.33552 -3.42763,5.52938 c -1.88519,3.04117 -3.51751,5.52939 -3.62737,5.52939 -0.10986,0 -1.16888,-2.92339 -2.35337,-6.49643 z"
           style="opacity:1;fill:#9e412f;fill-opacity:1;stroke:none;stroke-width:4;stroke-miterlimit:4;stroke-dasharray:none;stroke-opacity:1" /><path
           sodipodi:nodetypes="sssscssss"
           inkscape:connector-curvature="0"
           id="path3479"
           d="m -345.71788,159.20201 c -2.76207,-5.85559 -2.91456,-5.20673 1.74156,-7.41057 11.62689,-5.50327 24.33425,-9.11875 37.43656,-10.65141 2.55328,-0.29868 4.29906,0.0299 4.35944,0.0903 0.10849,0.10849 -7.45244,12.60709 -7.96431,13.15903 -0.14568,0.15707 -2.58531,0.62226 -5.42141,1.03376 -10.74491,1.55902 -18.09814,3.43351 -24.69799,6.29602 -1.84488,0.80017 -3.40517,1.45485 -3.4673,1.45485 -0.0621,0 -0.95608,-1.78739 -1.98655,-3.97198 z"
           style="opacity:1;fill:#f8b60f;fill-opacity:1;stroke:none;stroke-width:4;stroke-miterlimit:4;stroke-dasharray:none;stroke-opacity:1" /><path
           sodipodi:nodetypes="sscsccscsccs"
           inkscape:connector-curvature="0"
           id="path3481"
           d="m -378.4257,212.11541 c 3.94748,-7.54728 9.07906,-14.10271 15.79663,-20.17964 l 3.02705,-2.73838 2.29672,1.32261 c 1.26319,0.72745 2.61695,1.50265 3.00837,1.72271 0.39142,0.22005 0.71202,0.53416 0.71246,0.69802 2.6e-4,0.16388 -3.11288,4.84946 -6.91847,10.41241 l -5.62349,10.11447 -6.62933,1.50949 c -2.97259,0.67686 -6.60337,2.5905 -7.25036,2.78055 -0.64701,0.19004 -1.68883,0.90123 -1.86269,0.90169 -0.17385,4.9e-4 1.9864,-3.75878 3.44311,-6.54393 z"
           style="opacity:1;fill:#f9b70f;fill-opacity:1;stroke:none;stroke-width:4;stroke-miterlimit:4;stroke-dasharray:none;stroke-opacity:1" /><path
           sodipodi:nodetypes="sccccsscs"
           inkscape:connector-curvature="0"
           id="path3483"
           d="m -362.35672,217.51534 c -2.44811,-1.50326 -5.32396,-4.34563 -5.48583,-4.50645 4.10531,-7.23057 9.07097,-12.3651 14.07815,-20.23365 l 4.89366,5.01434 4.89368,5.01434 -2.51006,3.33225 c -1.38053,1.83274 -4.32684,5.76486 -6.54735,8.73804 -2.22051,2.97318 -4.96534,6.13914 -5.19465,6.13049 -0.2293,-0.009 -1.67948,-1.98611 -4.1276,-3.48936 z"
           style="opacity:1;fill:#e16326;fill-opacity:1;stroke:none;stroke-width:4;stroke-miterlimit:4;stroke-dasharray:none;stroke-opacity:1" /><path
           inkscape:connector-curvature="0"
           id="path3485"
           d="m -370.57772,228.91096 c -1.59545,-1.68856 -4.67787,-3.44221 -6.07632,-3.4569 -0.87023,-0.0107 -1.91657,-0.8909 -3.60142,-3.03489 -1.30614,-1.66209 -2.37481,-3.20097 -2.37481,-3.41973 0,-0.21878 3.33261,-1.76447 7.40581,-3.43486 l 7.4058,-3.0371 4.48978,3.60543 c 2.46938,1.98297 4.72125,3.89739 5.00415,4.25426 0.38383,0.48415 -0.96898,1.79295 -5.33024,5.15684 l -5.8446,4.50802 -1.07815,-1.14107 z"
           style="opacity:1;fill:#a14130;fill-opacity:1;stroke:none;stroke-width:4;stroke-miterlimit:4;stroke-dasharray:none;stroke-opacity:1" /><path
           inkscape:connector-curvature="0"
           id="path3487"
           d="m -284.61574,221.85237 c -2.44341,-1.58096 -4.48321,-3.00064 -4.53291,-3.15484 -0.0497,-0.15419 0.84095,-1.48183 1.97921,-2.9503 3.43928,-4.43699 5.5618,-8.65931 6.45317,-12.83724 0.75413,-3.53467 0.30738,-9.01282 -1.08037,-13.24772 -0.64545,-1.96965 -1.12098,-3.63534 -1.05675,-3.70151 0.0642,-0.0661 2.8593,-1.3942 6.21126,-2.95117 l 6.09448,-2.83083 0.81635,2.59552 c 1.65416,5.25931 2.14621,8.64909 2.12871,14.66481 -0.0125,4.28391 -0.18351,6.34416 -0.68079,8.20052 -1.48419,5.54047 -4.77412,11.26503 -9.39065,16.33995 l -2.49915,2.7473 -4.44256,-2.87449 z"
           style="opacity:1;fill:#f9bb0e;fill-opacity:1;stroke:none;stroke-width:4;stroke-miterlimit:4;stroke-dasharray:none;stroke-opacity:1" /><path
           inkscape:connector-curvature="0"
           id="path3489"
           d="m -277.95672,229.67903 c -0.20392,-0.29468 -0.72861,-1.62931 -1.16598,-2.96586 l -0.79522,-2.43008 2.90163,-3.68605 c 3.81679,-4.84862 5.9551,-8.53987 7.5681,-13.06438 1.39303,-3.90746 2.23125,-9.39881 1.77553,-11.6318 -0.18306,-0.89698 -0.0692,-1.27776 0.34975,-1.16933 0.43965,0.11379 0.77745,1.40767 1.15585,4.42732 0.91873,7.33152 -0.33949,13.70263 -4.04318,20.47315 -2.66093,4.8643 -7.2311,10.79171 -7.74648,10.04703 z"
           style="opacity:1;fill:#ba5c40;fill-opacity:1;stroke:none;stroke-width:4;stroke-miterlimit:4;stroke-dasharray:none;stroke-opacity:1" /><path
           inkscape:connector-curvature="0"
           id="path3491"
           d="m -281.39187,229.31404 c -3.11306,-1.7004 -3.40901,-2.01599 -5.81317,-6.19911 -1.39323,-2.42413 -2.45238,-4.48258 -2.35368,-4.57434 0.0987,-0.0918 2.60378,1.23895 5.56685,2.95714 l 5.38738,3.12399 0.36093,2.93626 c 0.19852,1.61495 0.30936,3.07382 0.24634,3.24197 -0.0631,0.16813 -1.59062,-0.50053 -3.39465,-1.48591 z"
           style="opacity:1;fill:#dc5b22;fill-opacity:1;stroke:none;stroke-width:4;stroke-miterlimit:4;stroke-dasharray:none;stroke-opacity:1" /><path
           inkscape:connector-curvature="0"
           id="path3496"
           d="m -352.48352,256.65261 c -3.95087,-0.66414 -9.59297,-2.56241 -13.21156,-4.44501 -4.71743,-2.45428 -10.94074,-7.97359 -13.51638,-11.98739 l -1.70382,-2.65517 1.25776,-1.2358 c 0.69178,-0.67969 3.12533,-1.97195 5.4079,-2.87169 3.9128,-1.54234 4.18033,-1.5817 4.67832,-0.68832 1.06602,1.91243 5.90532,6.64749 8.50843,8.32516 4.83713,3.11748 8.51629,4.06115 15.90919,4.08054 9.85692,0.0259 18.48255,-2.36523 32.84279,-9.1043 l 5.87944,-2.75914 2.43821,2.03512 c 1.34101,1.11932 3.0274,2.52176 3.74753,3.11654 l 1.30931,1.08141 -4.39136,2.82929 c -10.61878,6.8415 -23.25669,12.10968 -33.21674,13.84657 -4.18327,0.7295 -12.78318,0.96269 -15.93902,0.43219 z"
           style="opacity:1;fill:#e2e7eb;fill-opacity:1;stroke:none;stroke-width:4;stroke-miterlimit:4;stroke-dasharray:none;stroke-opacity:1" /><path
           sodipodi:nodetypes="ssccccscsscsscs"
           inkscape:connector-curvature="0"
           id="path3498"
           d="m -340.38877,259.89876 c -1.97818,-0.27419 -5.01484,-0.79451 -6.74813,-1.15626 -3.06223,-0.6391 -8.04105,-2.15826 -7.82402,-2.3873 0.0592,-0.0625 1.43667,0.13993 3.06106,0.44976 18.3598,1.22076 37.74883,-7.52887 49.97773,-15.08152 l 3.11992,-2.154 2.04925,2.69158 c 1.12708,1.48037 2.01134,2.78718 1.96504,2.90403 -0.1429,0.36056 -4.39568,4.01366 -4.67252,4.01366 -0.14344,0 -1.00558,-0.57409 -1.91586,-1.27576 l -1.65508,-1.27577 -1.62546,0.595 c -1.67227,0.61214 -29.3228,11.19496 -30.07441,11.51052 -0.2308,0.0969 -0.45404,0.49017 -0.49609,0.87393 -0.0995,0.9078 -0.5399,0.93273 -5.16143,0.29213 z"
           style="opacity:1;fill:#94aabc;fill-opacity:1;stroke:none;stroke-width:4;stroke-miterlimit:4;stroke-dasharray:none;stroke-opacity:1" /><path
           inkscape:connector-curvature="0"
           id="path3500"
           d="m -361.15441,240.89993 c -3.19177,-1.92042 -6.12266,-4.61512 -8.17597,-7.5171 -0.86076,-1.21652 -0.861,-1.21772 -0.26178,-1.342 2.32338,-0.48184 2.15478,-0.5643 5.52084,2.70025 2.71735,2.63542 3.24811,3.29234 4.01356,4.96763 0.48516,1.06182 0.8821,1.97478 0.8821,2.02879 0,0.2551 -0.54878,0.0228 -1.97875,-0.83757 z"
           style="opacity:1;fill:#94aabc;fill-opacity:1;stroke:none;stroke-width:4;stroke-miterlimit:4;stroke-dasharray:none;stroke-opacity:1" /><path
           sodipodi:nodetypes="scccccsscssss"
           inkscape:connector-curvature="0"
           id="path3502"
           d="m -324.65525,281.45605 -1.38764,-0.33073 3.68407,-5.24739 2.57342,-6.54314 6.9294,-1.67784 5.81876,-2.97359 8.296,-0.29585 c 14.40502,-0.51372 29.26958,-2.87347 41.704,-6.62052 2.7356,-0.82436 5.25055,-1.50153 5.58878,-1.50481 0.50339,-0.005 7.50022,12.34733 7.50022,13.24089 0,0.36088 -7.09084,3.29574 -12.48751,5.16851 -9.44184,3.27654 -21.41175,5.68162 -33.22163,6.67512 -7.06185,0.59407 -32.62891,0.67396 -34.99787,0.10935 z"
           style="opacity:1;fill:#e6eaed;fill-opacity:1;stroke:none;stroke-width:4;stroke-miterlimit:4;stroke-dasharray:none;stroke-opacity:1" /><path
           sodipodi:nodetypes="ccsscssscc"
           inkscape:connector-curvature="0"
           id="path3504"
           d="m -308.20754,284.15469 -5.49738,-2.21227 5.49738,-0.11289 c 7.57342,-0.15552 43.52539,-3.3293 59.91812,-10.34568 2.40241,-1.02827 4.42016,-1.80518 4.48388,-1.72645 0.0637,0.0787 0.40769,0.7032 0.76438,1.38773 0.82992,1.5927 0.83976,1.58682 -7.0512,4.21045 -11.46129,3.81071 -24.98858,6.9119 -38.78834,8.8924 -12.82464,1.84055 -13.94593,1.83514 -19.32684,-0.0933 z"
           style="opacity:1;fill:#c7cdd3;fill-opacity:0.96470588;stroke:none;stroke-width:4;stroke-miterlimit:4;stroke-dasharray:none;stroke-opacity:1" /><path
           sodipodi:nodetypes="ccccscc"
           inkscape:connector-curvature="0"
           id="path3506"
           d="m -285.76148,246.68594 c -2.26107,-1.87868 -4.17132,-3.59095 -4.245,-3.80503 8.79709,-9.69548 15.53446,-18.19143 22.25729,-28.8073 4.17304,0.89805 8.98839,0.99126 12.57985,1.88248 -0.35721,0.91444 -25.76807,34.14542 -26.11752,34.14542 -0.19996,0 -2.21354,-1.5371 -4.47462,-3.41579 z"
           style="opacity:1;fill:#e9ecef;fill-opacity:1;stroke:none;stroke-width:4;stroke-miterlimit:4;stroke-dasharray:none;stroke-opacity:1" /><path
           inkscape:connector-curvature="0"
           id="path3510"
           d="m -281.46463,250.99973 c -0.39739,-0.47881 -0.34945,-0.84083 0.28186,-2.12872 0.56766,-1.15802 16.25215,-21.9967 24.91869,-33.10739 0.64558,-0.82765 0.64607,-0.82718 1.47328,1.38474 l 0.82748,2.21266 -1.54037,2.68761 c -1.95276,3.40713 -5.4914,8.36213 -9.18184,12.85692 -2.93291,3.57215 -15.52409,16.67112 -16.02485,16.67112 -0.15149,0 -0.49091,-0.25962 -0.75425,-0.57694 z"
           style="opacity:1;fill:#b2becc;fill-opacity:1;stroke:none;stroke-width:4;stroke-miterlimit:4;stroke-dasharray:none;stroke-opacity:1" /><path
           inkscape:connector-curvature="0"
           id="path3512"
           d="m -285.15026,248.0377 c -5.1043,-4.62615 -4.87719,-4.36396 -4.54718,-5.2496 0.26722,-0.71715 0.63905,-0.48686 4.52155,2.80038 2.32671,1.96999 4.28646,3.75513 4.35499,3.96698 0.0685,0.21185 -0.0865,0.67393 -0.34458,1.02685 -0.42401,0.57986 -0.80779,0.33479 -3.98478,-2.54461 z"
           style="opacity:1;fill:#b2becc;fill-opacity:1;stroke:none;stroke-width:4;stroke-miterlimit:4;stroke-dasharray:none;stroke-opacity:1" /><path
           inkscape:connector-curvature="0"
           id="path3514"
           d="m -335.97005,270.10463 c 0.0837,-2.22998 0.28926,-5.75287 0.45677,-7.82866 l 0.30459,-3.77414 2.77559,-1.02129 c 1.52658,-0.5617 8.78505,-3.28857 16.12993,-6.0597 l 13.35432,-5.03842 4.90423,4.29826 c 2.69732,2.36404 5.36174,4.70916 5.92093,5.21137 0.9807,0.88074 0.77136,1.03306 -5.90717,4.29846 -3.80814,1.86195 -9.21963,4.61394 -12.02555,6.11555 -4.36632,2.33667 -6.49491,3.06391 -14.76794,5.04551 -5.31646,1.27342 -10.0334,2.42608 -10.48209,2.56145 -0.68982,0.20811 -0.7923,-0.37999 -0.66361,-3.80839 z"
           style="opacity:1;fill:#f9ae11;fill-opacity:1;stroke:none;stroke-width:4;stroke-miterlimit:4;stroke-dasharray:none;stroke-opacity:1" /><path
           inkscape:connector-curvature="0"
           id="path3516"
           d="m -332.45959,275.39586 -3.13453,-1.47953 7.99809,-1.99147 c 4.39895,-1.09531 8.10316,-1.88641 8.23157,-1.75799 0.12842,0.12841 -0.60107,1.42563 -1.62108,2.88271 -1.70008,2.42854 -2.07069,2.67789 -4.44897,2.99338 -1.42692,0.18929 -2.88604,0.45402 -3.24248,0.58829 -0.35644,0.13427 -2.05861,-0.42165 -3.7826,-1.23539 z"
           style="opacity:1;fill:#e25f25;fill-opacity:1;stroke:none;stroke-width:4;stroke-miterlimit:4;stroke-dasharray:none;stroke-opacity:1" /><path
           sodipodi:nodetypes="cssscc"
           inkscape:connector-curvature="0"
           id="path3520"
           d="m -291.83629,256.24458 c 0.50393,0.26712 2.22513,1.84461 2.22513,2.06575 0,0.22114 -1.4021,1.39086 -3.11578,2.59938 -2.98651,2.10615 -3.83049,3.75315 -7.49249,3.83624 l -6.9682,0.1581 c 0,0 3.86422,-2.78384 15.35134,-8.65947 z"
           style="opacity:1;fill:#e25f25;fill-opacity:1;stroke:none;stroke-width:4;stroke-miterlimit:4;stroke-dasharray:none;stroke-opacity:1" /><path
           sodipodi:nodetypes="scccssssss"
           inkscape:connector-curvature="0"
           id="path3522"
           d="m -394.83899,260.89093 c -4.89559,-5.07841 -7.75995,-9.991 -8.82959,-15.14344 -2.31224,-19.53902 3.52557,-31.52654 10.1584,-42.36993 5.63746,0.78889 8.43335,1.42619 13.10752,2.0732 l -2.92596,5.26679 c -6.25107,11.25204 -5.77273,17.10855 -4.44573,23.57677 0.99895,4.86921 3.62613,10.65988 6.94889,15.31631 2.34375,3.28447 2.36173,3.34157 1.42551,4.52844 -1.7957,2.27647 -10.3206,11.34803 -10.66417,11.34803 -0.18928,0 -2.33797,-2.06828 -4.77487,-4.59617 z"
           style="opacity:1;fill:#f8a714;fill-opacity:1;stroke:none;stroke-width:4;stroke-miterlimit:4;stroke-dasharray:none;stroke-opacity:1" /><path
           inkscape:connector-curvature="0"
           id="path3524"
           d="m -385.25518,268.15589 -5.15022,-2.60309 2.50343,-2.72075 c 1.37689,-1.49641 3.95691,-4.28147 5.73339,-6.18903 l 3.22995,-3.46827 4.3275,2.25328 c 2.38012,1.23931 4.54958,2.47537 4.82102,2.74681 0.41132,0.41132 -5.13807,7.2792 -9.46238,11.71056 -0.79416,0.81382 -1.20471,0.69553 -6.00269,-1.72951 z"
           style="opacity:1;fill:#a0412f;fill-opacity:1;stroke:none;stroke-width:4;stroke-miterlimit:4;stroke-dasharray:none;stroke-opacity:1" /><path
           sodipodi:nodetypes="ssssscccssscccsscs"
           inkscape:connector-curvature="0"
           id="path3526"
           d="m -374.25518,256.71297 c -2.98898,-1.74955 -4.7287,-3.27297 -6.29817,-5.5151 -7.19979,-10.28557 -9.75293,-19.91946 -7.81976,-29.50662 1.01908,-5.05392 5.33766,-17.00611 6.14467,-17.00611 0.31038,0 1.69345,0.81987 3.0735,1.82195 l 3.0645,1.2666 -3.12347,5.95194 -2.56815,5.3966 1.1029,1.61904 c 0.6066,0.89047 1.89269,2.41093 2.85796,3.37881 1.62003,1.62438 1.75505,2.06772 1.75505,5.76217 l 0,4.00237 -2.26457,1.58159 -2.26456,1.58162 1.34168,3.76186 c 1.8259,5.11953 3.72954,8.98296 6.83247,13.86643 1.43857,2.26406 2.7287,3.82222 2.64074,3.91507 -0.088,0.0928 -2.20345,-0.54873 -4.47479,-1.87822 z"
           style="opacity:1;fill:#e36226;fill-opacity:1;stroke:none;stroke-width:4;stroke-miterlimit:4;stroke-dasharray:none;stroke-opacity:1" /><path
           sodipodi:nodetypes="ssssscccss"
           inkscape:connector-curvature="0"
           id="path3528"
           d="m -293.53415,261.20125 c 12.37233,-9.21348 25.19918,-21.64412 31.72918,-30.74906 4.44462,-6.19725 9.82703,-16.88509 11.35487,-22.54732 3.58374,-13.28154 1.38929,-27.49646 -6.06865,-39.3106 -0.68478,-1.08477 -1.24506,-2.18996 -1.24506,-2.45597 0,-0.66911 19.91443,-11.10544 20.5003,-10.74336 0.82954,0.51269 5.49852,10.25836 7.12449,14.87113 10.31208,26.38847 0.92856,66.42163 -22.00967,86.32829 -10.44793,4.71709 -41.21282,8.87021 -45.46106,8.43611 -0.6978,-0.0713 0.69362,-1.31071 4.0756,-3.82922 z"
           style="opacity:1;fill:#fabd0d;fill-opacity:1;stroke:none;stroke-width:4;stroke-miterlimit:4;stroke-dasharray:none;stroke-opacity:1" /><path
           inkscape:connector-curvature="0"
           id="path3530"
           d="m -249.78452,192.52657 c -0.77211,-4.15184 -2.91589,-8.81544 -5.99173,-13.03447 -2.69658,-3.69883 -2.81658,-4.30545 -2.06668,-10.44729 l 0.3409,-2.79195 1.88733,3.31551 c 2.38443,4.18877 4.42466,9.31605 5.42725,13.6391 0.79027,3.40759 1.68513,12.45127 1.23203,12.45127 -0.13563,0 -0.50873,-1.40947 -0.8291,-3.13217 z"
           style="opacity:1;fill:#e15a24;fill-opacity:1;stroke:none;stroke-width:4;stroke-miterlimit:4;stroke-dasharray:none;stroke-opacity:1" /><path
           sodipodi:nodetypes="scccssss"
           inkscape:connector-curvature="0"
           id="path3535"
           d="m -251.25203,258.0032 c -0.43919,-0.62848 -0.96053,-1.21841 -0.93229,-1.31095 0.0282,-0.0925 3.28677,-4.49059 6.67558,-9.54721 6.98328,-11.25288 14.50431,-23.71393 16.96263,-31.62528 0,0 -0.57346,5.22691 -0.82686,6.22655 -1.89362,7.47031 -5.80191,15.3161 -13.14373,26.38574 -2.66797,4.02264 -7.43812,10.82873 -7.58948,10.82873 -0.0383,0 -0.70666,-0.3291 -1.14585,-0.95758 z"
           style="opacity:1;fill:#e15a24;fill-opacity:1;stroke:none;stroke-width:4;stroke-miterlimit:4;stroke-dasharray:none;stroke-opacity:1" /></g></g></g></svg>