<?xml version="1.0" encoding="UTF-8" standalone="no"?>
<!-- Created with Inkscape (http://www.inkscape.org/) -->

<svg
   xmlns:dc="http://purl.org/dc/elements/1.1/"
   xmlns:cc="http://creativecommons.org/ns#"
   xmlns:rdf="http://www.w3.org/1999/02/22-rdf-syntax-ns#"
   xmlns:svg="http://www.w3.org/2000/svg"
   xmlns="http://www.w3.org/2000/svg"
   xmlns:sodipodi="http://sodipodi.sourceforge.net/DTD/sodipodi-0.dtd"
   xmlns:inkscape="http://www.inkscape.org/namespaces/inkscape"
   id="svg2"
   version="1.1"
   inkscape:version="0.91 r13725"
   xml:space="preserve"
   width="200"
   height="200"
   viewBox="0 0 200 200"
   sodipodi:docname="logo_gennera.svg"><metadata
     id="metadata8"><rdf:RDF><cc:Work
         rdf:about=""><dc:format>image/svg+xml</dc:format><dc:type
           rdf:resource="http://purl.org/dc/dcmitype/StillImage" /><dc:title /></cc:Work></rdf:RDF></metadata><defs
     id="defs6" /><sodipodi:namedview
     pagecolor="#ffffff"
     bordercolor="#666666"
     borderopacity="1"
     objecttolerance="10"
     gridtolerance="10"
     guidetolerance="10"
     inkscape:pageopacity="0"
     inkscape:pageshadow="2"
     inkscape:window-width="1280"
     inkscape:window-height="711"
     id="namedview4"
     showgrid="false"
     inkscape:zoom="0.9820546"
     inkscape:cx="67.426541"
     inkscape:cy="50.833965"
     inkscape:window-x="0"
     inkscape:window-y="1"
     inkscape:window-maximized="1"
     inkscape:current-layer="g12" /><g
     id="g10"
     inkscape:groupmode="layer"
     inkscape:label="ink_ext_XXXXXX"
     transform="matrix(1.25,0,0,-1.25,0,200)"><g
       id="g12"
       transform="scale(0.1,0.1)"><rect
         style="opacity:1;fill:#ffffff;fill-opacity:1"
         id="rect4648"
         width="1598.689"
         height="1600.7256"
         x="-4.2363163e-06"
         y="0.00012207031" /><g
         id="g4904"
         transform="matrix(8,0,0,-8,-2830.9471,2998.0973)"><g
           id="g4852"
           transform="translate(361.48703,-101.82733)"><path
             id="path4854"
             d="m 153.039,377.78 0,0 c -0.585,0.235 -14.642,5.974 -31.802,13.061 l -7.262,-12.943 0.176,-0.117 38.888,0 z"
             inkscape:connector-curvature="0"
             style="fill:#f9b000" /><path
             id="path4856"
             d="m 152.979,377.78 -25.066,25.067 -6.735,-11.948 c 17.218,-7.146 31.275,-12.884 31.801,-13.119"
             inkscape:connector-curvature="0"
             style="fill:#3a6587" /><path
             id="path4858"
             d="m 138.279,338.188 -49.43,0 c 3.69,-8.96 6.384,-15.461 7.204,-17.218 l 0,0 c 0.118,-0.117 0.176,-0.234 0.176,-0.293 l 0.293,-0.117 41.757,17.628 z"
             inkscape:connector-curvature="0"
             style="fill:#d0e1eb" /><polygon
             id="polygon4860"
             points="136.229,417.605 136.171,417.781 119.831,410.987 127.913,402.847 "
             style="fill:#3a6587" /><polygon
             id="polygon4862"
             points="96.17,434.766 96.287,434.474 119.831,410.987 136.171,417.781 136.171,417.84 96.58,434.941 "
             style="fill:#2d84ae" /><path
             id="path4864"
             d="m 127.913,402.847 -8.082,8.141 -23.544,-9.839 c 8.258,-3.397 16.926,-7.028 24.891,-10.308 l 6.735,12.006 z"
             inkscape:connector-curvature="0"
             style="fill:#4597b9" /><path
             id="path4866"
             d="M 119.831,410.987 96.345,434.473 84.632,406.008 c 3.748,-1.522 7.672,-3.162 11.655,-4.86 l 23.544,9.839 z"
             inkscape:connector-curvature="0"
             style="fill:#3a6587" /><path
             id="path4868"
             d="m 84.632,406.009 11.713,28.465 -0.117,0.352 -39.064,-17.161 c 2.108,-1.055 13.353,-5.799 27.468,-11.656"
             inkscape:connector-curvature="0"
             style="fill:#397b9d" /><path
             id="path4870"
             d="m 79.771,394.237 16.516,6.853 c -4.041,1.64 -7.965,3.338 -11.655,4.861 l -4.861,-11.714 z"
             inkscape:connector-curvature="0"
             style="fill:#63a2c7" /><path
             id="path4872"
             d="M 56.461,338.188 96.17,320.735 c 0,0.059 -0.059,0.117 -0.118,0.234 l 0,0 c -1.347,1.815 -8.141,8.727 -16.574,17.218 l -22.783,0 -0.234,0 z"
             inkscape:connector-curvature="0"
             style="fill:#d0e1eb" /><path
             id="path4874"
             d="m 96.052,321.028 c -0.819,1.698 -3.572,8.258 -7.204,17.219 l -9.371,0 c 8.435,-8.551 15.229,-15.462 16.575,-17.219"
             inkscape:connector-curvature="0"
             style="fill:#b4d0e0" /><path
             id="path4876"
             d="m 79.478,338.188 9.371,0 c -4.51,11.011 -10.483,25.653 -15.93,39.299 l -9.546,-23.252 c 5.387,-5.388 11.009,-11.009 16.105,-16.047"
             inkscape:connector-curvature="0"
             style="fill:#90c2dd" /><path
             id="path4878"
             d="m 79.771,394.237 4.803,11.714 c -14.115,5.856 -25.36,10.601 -27.527,11.654 l -0.235,-0.117 c 0.762,-2.107 5.389,-13.646 11.246,-28.171 l 11.713,4.92 z"
             inkscape:connector-curvature="0"
             style="fill:#2d84ae" /><path
             id="path4880"
             d="m 72.86,377.487 6.911,16.75 -11.713,-4.861 c 1.522,-3.807 3.162,-7.848 4.802,-11.889"
             inkscape:connector-curvature="0"
             style="fill:#4597b9" /><path
             id="path4882"
             d="m 56.695,338.188 22.783,0 c -5.096,5.095 -10.718,10.718 -16.165,16.047 l -6.618,-16.047 z"
             inkscape:connector-curvature="0"
             style="fill:#b4d0e0" /><path
             id="path4884"
             d="m 63.313,354.235 9.546,23.252 c -1.64,4.1 -3.28,8.14 -4.802,11.948 L 39.593,377.487 c 10e-4,0 11.245,-10.952 23.72,-23.252"
             inkscape:connector-curvature="0"
             style="fill:#63a2c7" /><path
             id="path4886"
             d="m 39.594,377.487 28.464,11.889 c -5.798,14.467 -10.484,26.062 -11.246,28.171 l -0.41,-0.176 -17.101,-39.591 0.117,-0.292 0.176,0 z"
             inkscape:connector-curvature="0"
             style="fill:#4597b9" /><path
             id="path4888"
             d="m 56.695,338.188 6.618,16.047 c -12.475,12.299 -23.72,23.31 -23.72,23.31 l -0.117,-0.058 16.984,-39.299 0.235,0 0,0 z"
             inkscape:connector-curvature="0"
             style="fill:#90c2dd" /><polygon
             id="polygon4890"
             points="153.039,377.78 153.273,377.78 136.229,417.605 127.913,402.847 152.979,377.78 "
             style="fill:#397b9d" /></g></g></g></g></svg>