<?xml version="1.0" encoding="UTF-8" standalone="no"?>
<!-- Created with Inkscape (http://www.inkscape.org/) -->

<svg
   xmlns:dc="http://purl.org/dc/elements/1.1/"
   xmlns:cc="http://creativecommons.org/ns#"
   xmlns:rdf="http://www.w3.org/1999/02/22-rdf-syntax-ns#"
   xmlns:svg="http://www.w3.org/2000/svg"
   xmlns="http://www.w3.org/2000/svg"
   xmlns:sodipodi="http://sodipodi.sourceforge.net/DTD/sodipodi-0.dtd"
   xmlns:inkscape="http://www.inkscape.org/namespaces/inkscape"
   id="svg2"
   version="1.1"
   inkscape:version="0.91 r13725"
   xml:space="preserve"
   width="200"
   height="200"
   viewBox="0 0 200 200"
   sodipodi:docname="logo_marconsoft.svg"><metadata
     id="metadata8"><rdf:RDF><cc:Work
         rdf:about=""><dc:format>image/svg+xml</dc:format><dc:type
           rdf:resource="http://purl.org/dc/dcmitype/StillImage" /><dc:title></dc:title></cc:Work></rdf:RDF></metadata><defs
     id="defs6" /><sodipodi:namedview
     pagecolor="#ffffff"
     bordercolor="#666666"
     borderopacity="1"
     objecttolerance="10"
     gridtolerance="10"
     guidetolerance="10"
     inkscape:pageopacity="0"
     inkscape:pageshadow="2"
     inkscape:window-width="1366"
     inkscape:window-height="713"
     id="namedview4"
     showgrid="false"
     inkscape:zoom="3.9282184"
     inkscape:cx="67.426541"
     inkscape:cy="50.833965"
     inkscape:window-x="0"
     inkscape:window-y="26"
     inkscape:window-maximized="1"
     inkscape:current-layer="g12" /><g
     id="g10"
     inkscape:groupmode="layer"
     inkscape:label="ink_ext_XXXXXX"
     transform="matrix(1.25,0,0,-1.25,0,200)"><g
       id="g12"
       transform="scale(0.1,0.1)"><rect
         style="opacity:1;fill:#ffffff;fill-opacity:1"
         id="rect4648"
         width="1598.689"
         height="1600.7256"
         x="-4.2363163e-06"
         y="0.00012207031" /><g
         transform="matrix(2.5866426,0,0,-2.5866426,74.38029,1596.2159)"
         id="g3356"><path
           inkscape:connector-curvature="0"
           id="path5"
           d="m 279.72327,278.87492 c -4.27906,0.0762 -7.16945,0.53375 -8.67055,0.97122 l 0,26.7095 c 1.7796,0.41355 3.97794,0.55636 7.01049,0.57639 11.32442,0.0717 18.44153,-5.52037 18.44153,-14.9896 -6.5e-4,-8.51351 -6.12197,-13.4801 -16.78147,-13.26751 z" /><path
           inkscape:connector-curvature="0"
           id="path7"
           d="m 453.39572,147.02692 -114.62712,0 c -0.50855,0 -1.00352,0.0498 -1.50497,0.0801 l 0,-31.72973 -223.72287,29.85772 0,318.12498 223.72287,30.63056 0,-32.68609 c 0.50145,0.0336 0.99642,0.0737 1.50497,0.0737 l 114.62712,0 c 13.41226,0 24.31408,-10.9128 24.31408,-24.31408 l 0,-265.72568 c 0,-13.40385 -10.90182,-24.31149 -24.31408,-24.31149 z M 169.69377,319.50328 c 0,23.37583 -10.24465,31.00729 -26.27009,30.18728 -3.71105,-0.18998 -8.5568,-1.14439 -11.68241,-2.46973 l 1.77184,-14.34147 c 2.19833,0.89884 5.03251,1.58768 8.20787,1.69559 6.84699,0.24814 11.17322,-3.07261 11.17322,-15.64031 l 0,-50.74765 16.80022,-0.55443 0,51.87072 z m 33.93968,33.14423 c -9.18103,-0.47106 -18.0732,-3.3983 -22.46469,-6.1937 l 3.57535,-15.41673 c 4.77661,2.75728 12.19161,5.62699 19.973,5.90551 8.50575,0.30563 13.05944,-3.23934 13.05944,-8.86052 0,-5.35948 -3.94175,-8.49348 -13.77865,-12.33378 -13.3037,-5.04672 -21.79137,-12.77705 -21.79137,-24.85881 0,-14.17864 11.18938,-25.41842 30.28679,-26.07688 9.38263,-0.32245 16.39894,1.5011 21.48766,3.67552 l -4.3217,16.00863 c -3.40411,-1.62516 -9.39621,-3.95531 -17.53041,-3.7957 -8.01401,0.14927 -11.8459,3.99085 -11.8459,8.38169 0,5.39372 4.56079,7.76329 15.15631,11.93185 14.84874,5.70389 21.99427,13.81483 21.99427,26.1654 0,14.69753 -11.05238,26.62872 -33.8001,25.46752 z m 105.74721,-38.92695 c -7.56491,6.67189 -18.57012,9.48797 -31.17529,9.22949 -2.76116,-0.0575 -5.23734,-0.2449 -7.15265,-0.56024 l 0,32.34747 -20.2502,-1.00999 0,-87.59001 c 6.21438,-1.26199 15.08976,-2.35534 27.81706,-2.78312 13.18156,-0.44781 22.76969,1.71304 29.29618,6.49934 6.32294,4.57113 10.61749,12.3202 10.61749,21.56327 -6.3e-4,9.2437 -3.26453,17.06256 -9.15259,22.30379 z m 154.43482,123.34353 c 0,5.7459 -4.67322,10.42106 -10.41976,10.42106 l -114.62712,0 c -0.515,0 -1.00999,-0.0717 -1.50497,-0.14926 l 0,-84.93871 c 7.80078,1.07849 18.64832,1.70981 33.5817,1.70981 41.49167,0 59.7038,-7.61143 62.69242,-10.82105 2.99249,-3.2361 -0.92922,-5.77368 -0.92922,-5.77368 0,0 1.38155,1.61806 -0.44651,3.46033 -1.84551,1.83454 -18.67998,6.44055 -45.65505,7.82146 -18.73426,0.96992 -38.57091,-0.63133 -49.24915,-2.85292 l 0,-7.74391 c 3.60249,-0.99061 7.0751,-1.60125 7.0751,-1.60125 -0.60935,0.075 -3.5004,0.18287 -7.0751,0.50855 l 0,-37.8937 c 5.98757,2.95501 18.39177,4.67128 37.1635,4.01347 32.81468,-1.17412 36.67629,-7.35425 40.10173,-10.32413 -19.00953,5.17789 -69.4832,4.84576 -69.84636,1.03778 -0.33602,-3.80281 15.55954,-6.91808 15.55954,-6.91808 0,0 -15.40381,0.0136 -22.97131,3.05582 l 0,-138.99872 c 0.49499,-0.0724 0.98996,-0.15637 1.50498,-0.15637 l 114.62711,0 c 5.74655,0 10.41977,4.67581 10.41977,10.42041 l 0,265.72309 z" /><path
           inkscape:connector-curvature="0"
           id="path9"
           d="m 398.6262,231.68001 c 8.28283,-13.48851 -1.04488,-26.61709 -1.04488,-26.61709 0,0 2.07555,9.68117 -3.45258,19.70418 -5.52942,10.02559 -25.95281,15.91236 -33.89381,33.19011 -7.93711,17.29131 17.6351,37.0026 17.6351,37.0026 0,0 -9.3387,-17.98985 -8.99622,-31.12941 0.25524,-9.39233 21.42498,-18.67287 29.75239,-32.15039 z" /><path
           inkscape:connector-curvature="0"
           id="path11"
           d="m 412.80548,240.32923 c 0,0 -31.81114,12.09726 -31.81114,25.92178 0,13.83681 8.64275,18.3278 10.02753,22.81881 1.38413,4.50133 -2.41479,12.10502 -2.41479,12.10502 0,0 12.44814,-8.63823 10.35902,-18.67739 -2.0762,-10.02817 -11.75674,-13.13699 -6.22085,-23.16129 3.69684,-6.71453 20.06023,-19.00693 20.06023,-19.00693 z" /><path
           inkscape:connector-curvature="0"
           id="path13"
           d="m 419.36622,297.72097 c 0,0 14.17799,0 15.55566,8.64339 1.37767,8.63824 -17.97111,21.42563 -17.97111,21.42563 0,0 30.47418,-6.13555 27.63807,-21.76358 -3.45258,-19.01341 -25.22262,-8.30544 -25.22262,-8.30544 z" /><path
           inkscape:connector-curvature="0"
           id="path15"
           d="m 351.58508,320.52814 c -1.35958,-2.41932 2.43613,-3.7957 2.43613,-3.7957 -17.30683,4.15885 -7.85247,11.40133 12.41842,12.80226 17.37532,1.17993 36.79388,-5.19664 36.79388,-5.19664 l 5.98435,-4.83413 c 0,0 -13.69789,1.90302 -24.44333,3.11074 -14.39704,1.61741 -31.80209,0.33861 -33.18945,-2.08653 z" /><path
           inkscape:connector-curvature="0"
           id="path17"
           d="m 357.4867,337.13967 c -0.70563,-1.6187 0.68238,-2.53046 0.68238,-2.53046 0,0 -7.83954,0.21646 -8.29445,4.36886 -0.46009,4.12784 2.43676,6.22084 21.83206,5.76723 23.09021,-0.55056 26.93954,-3.2975 29.31751,-5.29939 l 5.62506,-4.24028 c -15.09235,1.95795 -16.25871,2.4904 -24.81358,2.73338 -8.59882,0.25136 -23.6666,0.79739 -24.34898,-0.79934 z" /><path
           inkscape:connector-curvature="0"
           id="path19"
           d="m 417.40504,366.8675 c -18.21472,3.69361 -73.50636,1.37057 -73.50636,1.37057 0,0 35.9351,8.5232 76.96346,1.38349 19.60984,-3.41122 20.75617,-12.91276 20.75617,-12.91276 0,0 -6.0076,6.4651 -24.21327,10.1587 z" /></g></g></g></svg>