<?xml version="1.0" encoding="UTF-8" standalone="no"?>
<!-- Created with Inkscape (http://www.inkscape.org/) -->

<svg
   xmlns:dc="http://purl.org/dc/elements/1.1/"
   xmlns:cc="http://creativecommons.org/ns#"
   xmlns:rdf="http://www.w3.org/1999/02/22-rdf-syntax-ns#"
   xmlns:svg="http://www.w3.org/2000/svg"
   xmlns="http://www.w3.org/2000/svg"
   xmlns:sodipodi="http://sodipodi.sourceforge.net/DTD/sodipodi-0.dtd"
   xmlns:inkscape="http://www.inkscape.org/namespaces/inkscape"
   id="svg2"
   version="1.1"
   inkscape:version="0.92.1 r15371"
   xml:space="preserve"
   width="213.33333"
   height="213.33333"
   viewBox="0 0 200 200"
   sodipodi:docname="logo_radixeng.svg"><metadata
     id="metadata8"><rdf:RDF><cc:Work
         rdf:about=""><dc:format>image/svg+xml</dc:format><dc:type
           rdf:resource="http://purl.org/dc/dcmitype/StillImage" /><dc:title></dc:title></cc:Work></rdf:RDF></metadata><defs
     id="defs6" /><sodipodi:namedview
     pagecolor="#ffffff"
     bordercolor="#666666"
     borderopacity="1"
     objecttolerance="10"
     gridtolerance="10"
     guidetolerance="10"
     inkscape:pageopacity="0"
     inkscape:pageshadow="2"
     inkscape:window-width="1366"
     inkscape:window-height="719"
     id="namedview4"
     showgrid="false"
     inkscape:zoom="0.9820546"
     inkscape:cx="-129.31058"
     inkscape:cy="161.29317"
     inkscape:window-x="-8"
     inkscape:window-y="22"
     inkscape:window-maximized="1"
     inkscape:current-layer="g12" /><g
     id="g10"
     inkscape:groupmode="layer"
     inkscape:label="ink_ext_XXXXXX"
     transform="matrix(1.25,0,0,-1.25,0,200)"><g
       id="g12"
       transform="scale(0.1)"><rect
   style="opacity:1;fill:#ffffff;fill-opacity:1"
   id="rect4648"
   width="1598.689"
   height="1600.7256"
   x="-4.2363163e-06"
   y="0.00012207031" />











<g
   id="g116"
   transform="matrix(0.66065797,0,0,0.66065797,-693.09805,-2130.6208)"><path
     style="fill:#b4d342;fill-opacity:1;stroke-width:10.00000095"
     d="m 3099.3085,4646.0493 -28.5821,45.2396 48.5821,80.282 c 26.7202,44.1552 62.0821,88.6436 78.5821,98.8632 32.6449,20.2193 125.0244,37.9412 124.9605,23.9722 -0.064,-13.9396 -173.99,-287.1143 -184.9605,-290.5055 -5.5,-1.7001 -22.8619,17.2667 -38.5821,42.1485 z"
     id="path150"
     inkscape:connector-curvature="0"
     sodipodi:nodetypes="scssccs" /><path
     style="fill:#5b336e;fill-opacity:1;stroke-width:10.00000095"
     d="m 1638.1278,4267.0469 c -73.561,27.4177 -106.867,78.3444 -106.8006,163.3042 0.085,108.4117 65.0799,152.2521 226.2381,152.6015 116.7652,0.2533 130.0033,7.6537 120.3294,67.2668 -8.4277,51.9338 -42.9439,82.6567 -102.4202,91.1644 l -49.1847,7.0356 v 39.8764 c 0,36.87 2.2618,40.1379 30,43.3439 47.8193,5.5269 132.5918,-17.7322 165.475,-45.4017 57.8437,-48.6722 62.9802,-69.9527 67.6305,-280.1931 2.3373,-105.6701 1.384,-203.5451 -2.1184,-217.5001 -8.1218,-32.3597 -51.5764,-34.5864 -89.7024,-4.5965 l -26.4126,20.7761 -35.5607,-21.9778 c -45.2337,-27.9559 -143.6067,-35.7769 -197.4734,-15.6997 z m 209.4569,107.8747 c 20.7433,20.7434 26.0543,36.2473 27.2365,79.5093 l 1.4686,53.7414 -92.8888,2.8804 c -91.2645,2.83 -93.4067,2.3625 -122.5,-26.7308 -31.6394,-31.6394 -36.3005,-55.5272 -18.4704,-94.66 16.2092,-35.5753 45.8382,-46.5934 116.6226,-43.3681 51.9262,2.3661 67.2128,7.3092 88.5315,28.6278 z m -507.0518,-85.9043 c -23.8774,25.4552 -24.2415,28.6605 -24.1368,212.5 0.099,173.4305 1.6768,189.6064 22.2736,228.3128 40.4827,76.0771 112.5002,106.8023 237.6201,101.3773 l 70,-3.0351 v -40 -40 l -75,-5.0849 c -41.25,-2.7966 -85.0219,-10.7748 -97.2708,-17.7292 -42.4526,-24.1026 -47.0401,-47.4604 -51.0021,-259.6859 l -3.7805,-202.5001 h -27.2302 c -16.3628,0 -36.9054,10.3146 -51.4733,25.8451 z m 720.7569,255.0335 v 280.8786 l 158.2623,-3.3785 c 152.2401,-3.2501 159.8044,-4.3999 198.7885,-30.2188 67.9949,-45.0324 82.9492,-90.0569 82.9492,-249.7442 0,-122.2693 -2.2328,-139.4923 -23.232,-179.2023 -17.3768,-32.8601 -36.5669,-50.8986 -76.1419,-71.5729 -50.6396,-26.4544 -59.0828,-27.6405 -196.768,-27.6405 h -143.8581 z m 279.0881,-176.3501 c 43.9965,22.7515 53.0427,58.6468 49.269,195.5006 -3.2562,118.0884 -4.1712,122.448 -30.4371,145.0188 -32.6725,28.076 -142.3502,43.9886 -176.654,25.6297 -20.4651,-10.9526 -21.266,-18.0839 -21.266,-189.3627 0,-97.8898 3,-180.9815 6.6667,-184.6482 12.8223,-12.8223 143.9881,-6.8416 172.4214,7.8618 z m 240.9119,154.949 c 0,247.1893 1.0236,261.5462 20,280.5226 12.4152,12.4152 33.3333,20 55.1582,20 h 35.1582 l -2.6582,-277.5 -2.6582,-277.5001 -52.5,-3.0226 -52.5,-3.0226 z m 180,-249.8893 c 0,5.2734 31.1853,58.1484 69.3006,117.5 38.1154,59.3515 72.3606,120.3164 76.1006,135.4776 11.7889,47.7899 -4.2867,93.5482 -65.7481,187.1488 -32.8092,49.9656 -59.6531,95.4351 -59.6531,101.0432 0,6.1538 24.6208,9.0162 62.0967,7.2195 l 62.0966,-2.9772 172.134,-265 c 94.6737,-145.7501 172.4802,-270.6251 172.9033,-277.5001 0.534,-8.6694 -17.242,-12.5 -58.0062,-12.5 -67.4954,0 -65.707,-1.4857 -131.161,108.9606 -24.7849,41.8217 -49.441,76.0395 -54.7913,76.0395 -5.3504,0 -28.7136,-31.5001 -51.9182,-70.0001 -72.0928,-119.6127 -66.7251,-115 -133.8207,-115 -32.7433,0 -59.5332,4.3147 -59.5332,9.5882 z"
     id="path132"
     inkscape:connector-curvature="0"
     sodipodi:nodetypes="sccsscsccsccccscscssscccccscccccscscccccsccscccsccsscssscccccsscsssccscssscss" /><flowRoot
     xml:space="preserve"
     id="flowRoot3848"
     style="font-style:normal;font-weight:normal;font-size:40px;line-height:1.25;font-family:sans-serif;letter-spacing:0px;word-spacing:0px;fill:#5d3570;fill-opacity:1;stroke:none"
     transform="matrix(7.5000002,0,0,-7.5000002,5074.3372,4907.959)"><flowRegion
       id="flowRegion3850"
       style="fill:#5d3570;fill-opacity:1"><rect
         id="rect3852"
         width="190.08736"
         height="63.362465"
         x="-416.17618"
         y="85.16835"
         style="fill:#5d3570;fill-opacity:1" /></flowRegion><flowPara
       id="flowPara3854"
       style="font-size:16px;fill:#5d3570;fill-opacity:1">Engenharia e Software</flowPara></flowRoot></g></g></g></svg>