<?xml version="1.0" encoding="UTF-8" standalone="no"?>
<!-- Created with Inkscape (http://www.inkscape.org/) -->

<svg
   xmlns:dc="http://purl.org/dc/elements/1.1/"
   xmlns:cc="http://creativecommons.org/ns#"
   xmlns:rdf="http://www.w3.org/1999/02/22-rdf-syntax-ns#"
   xmlns:svg="http://www.w3.org/2000/svg"
   xmlns="http://www.w3.org/2000/svg"
   xmlns:sodipodi="http://sodipodi.sourceforge.net/DTD/sodipodi-0.dtd"
   xmlns:inkscape="http://www.inkscape.org/namespaces/inkscape"
   id="svg2"
   version="1.1"
   inkscape:version="0.91 r13725"
   xml:space="preserve"
   width="200"
   height="200"
   viewBox="0 0 200 200"
   sodipodi:docname="logo_freehammer.svg"><metadata
     id="metadata8"><rdf:RDF><cc:Work
         rdf:about=""><dc:format>image/svg+xml</dc:format><dc:type
           rdf:resource="http://purl.org/dc/dcmitype/StillImage" /><dc:title /></cc:Work></rdf:RDF></metadata><defs
     id="defs6" /><sodipodi:namedview
     pagecolor="#ffffff"
     bordercolor="#666666"
     borderopacity="1"
     objecttolerance="10"
     gridtolerance="10"
     guidetolerance="10"
     inkscape:pageopacity="0"
     inkscape:pageshadow="2"
     inkscape:window-width="1366"
     inkscape:window-height="713"
     id="namedview4"
     showgrid="false"
     inkscape:zoom="1"
     inkscape:cx="55.172896"
     inkscape:cy="39.981819"
     inkscape:window-x="0"
     inkscape:window-y="26"
     inkscape:window-maximized="1"
     inkscape:current-layer="g12"
     showguides="true"
     inkscape:guide-bbox="true" /><g
     id="g10"
     inkscape:groupmode="layer"
     inkscape:label="ink_ext_XXXXXX"
     transform="matrix(1.25,0,0,-1.25,0,200)"><g
       id="g12"
       transform="scale(0.1,0.1)"><rect
         style="opacity:1;fill:#ffffff;fill-opacity:1"
         id="rect4648"
         width="1598.689"
         height="1600.7256"
         x="-4.2363163e-06"
         y="-1600.7257"
         transform="scale(1,-1)" /><path
         style="fill:#00caad;fill-opacity:1;stroke:#000000;stroke-width:67.61352539;stroke-miterlimit:4;stroke-dasharray:none;stroke-opacity:1"
         d="m 811.52643,1309.2916 c -281.05733,0 -508.8994,-229.5438 -508.90465,-512.7003 0.29603,-251.10953 181.07044,-465.05093 427.07519,-505.42994 l 0,296.67371 -176.18509,0 -74.13556,50.70355 0,316.80618 74.13556,50.6744 140.75252,0 0,24.0891 c 0,12.4389 50.92511,18.2929 113.72904,18.2929 62.80382,0 113.69981,-5.8686 113.69981,-18.3077 l 0,-24.0598 140.76705,0 74.1209,-50.7036 0,-316.79148 -74.1209,-50.70355 -184.11258,0 0,-298.41099 c 0,-0.16903 -0.0651,-0.32893 -0.0731,-0.49704 252.82518,33.70125 441.84988,250.73082 442.15658,507.66366 0,283.1564 -227.8473,512.698 -508.90465,512.7003 z"
         id="path6"
         inkscape:connector-curvature="0"
         sodipodi:nodetypes="cccccccccsssccccccsccc" /></g></g></svg>